<svg xmlns="http://www.w3.org/2000/svg" xmlns:xlink="http://www.w3.org/1999/xlink" viewBox="0 0 774 899.47"><defs><style>.cls-1{fill:#dce4fb;}.cls-2{fill:#b8bdd3;}.cls-3{fill:#edb2b0;}.cls-4{fill:#f0cfc8;}.cls-5{fill:#fabdb8;}.cls-6{fill:#81a7f8;}.cls-7{fill:#f9c5c2;}.cls-8{fill:#f9c3c0;}.cls-9{fill:url(#radial-gradient);}.cls-10,.cls-11,.cls-12,.cls-13,.cls-14,.cls-15,.cls-16,.cls-17,.cls-18,.cls-19,.cls-20{stroke:#a5fcf6;}.cls-10,.cls-11,.cls-12,.cls-13,.cls-14,.cls-15,.cls-16,.cls-17,.cls-18,.cls-19,.cls-20,.cls-27{stroke-miterlimit:10;}.cls-10{fill:url(#linear-gradient);}.cls-11{fill:url(#linear-gradient-2);}.cls-12{fill:url(#linear-gradient-3);}.cls-13{fill:url(#linear-gradient-4);}.cls-14{fill:url(#linear-gradient-5);}.cls-15{fill:url(#linear-gradient-6);}.cls-16{fill:url(#linear-gradient-7);}.cls-17{fill:url(#linear-gradient-8);}.cls-18{fill:url(#linear-gradient-9);}.cls-19{fill:url(#linear-gradient-10);}.cls-20{fill:url(#linear-gradient-11);}.cls-21{fill:#d3d5fb;}.cls-22{fill:#d6dbfb;}.cls-23{fill:#e5a9a8;}.cls-24{fill:#f1b1a8;}.cls-25{fill:#f1abad;}.cls-26{fill:#f5b3b4;}.cls-27{fill:#a2fdf6;stroke:#000;stroke-width:0.25px;}.cls-28{fill:#92ddd6;}.cls-29{fill:#536d9b;}.cls-30{opacity:0.31;}.cls-31{fill:#4c54d9;}</style><radialGradient id="radial-gradient" cx="460.5" cy="818" r="195.13" gradientUnits="userSpaceOnUse"><stop offset="0" stop-color="#d9e0fc"/><stop offset="1" stop-color="#81a7f8"/></radialGradient><linearGradient id="linear-gradient" x1="283.11" y1="801" x2="394" y2="801" gradientUnits="userSpaceOnUse"><stop offset="0" stop-color="#a5fcf6"/><stop offset="1" stop-color="#81a7f8"/></linearGradient><linearGradient id="linear-gradient-2" x1="196.5" y1="657.33" x2="227.5" y2="657.33" xlink:href="#linear-gradient"/><linearGradient id="linear-gradient-3" x1="543.76" y1="791.5" x2="654.47" y2="791.5" xlink:href="#linear-gradient"/><linearGradient id="linear-gradient-4" x1="457" y1="642.83" x2="488" y2="642.83" xlink:href="#linear-gradient"/><linearGradient id="linear-gradient-5" x1="493.61" y1="866.5" x2="604.5" y2="866.5" xlink:href="#linear-gradient"/><linearGradient id="linear-gradient-6" x1="407" y1="722.83" x2="438" y2="722.83" xlink:href="#linear-gradient"/><linearGradient id="linear-gradient-7" x1="460.61" y1="922.32" x2="525.62" y2="922.32" xlink:href="#linear-gradient"/><linearGradient id="linear-gradient-8" x1="374" y1="822.83" x2="405" y2="822.83" xlink:href="#linear-gradient"/><linearGradient id="linear-gradient-9" x1="312.61" y1="943.63" x2="377.62" y2="943.63" xlink:href="#linear-gradient"/><linearGradient id="linear-gradient-10" x1="226" y1="865.83" x2="257" y2="865.83" xlink:href="#linear-gradient"/><linearGradient id="linear-gradient-11" x1="253.5" y1="776.75" x2="312.47" y2="776.75" xlink:href="#linear-gradient"/></defs><title>Loie</title><g id="Layer_2" data-name="Layer 2"><path class="cls-1" d="M310.5,551.5s16-3,9-28-1-28,0-36-5-29-5-29l-13-59v-102l-10-16-26,12-19-8s-25,23-21,42,9,50-11,68-20,16-14,48,20,32,7,53-31,14-17,34,23,19,18,32,16,35,17,37,28,4,28,4l38-26Z" transform="translate(-79.5 -101.17)"/><path class="cls-2" d="M308,494a18.17,18.17,0,0,1,19-29l33,32,49,19,69-13,31.57-18.86L547,455l21,74,27,67-23,29L410.5,592.27,291,587l11-42a43.09,43.09,0,0,0,11-21A43.9,43.9,0,0,0,308,494Z" transform="translate(-79.5 -101.17)"/><path class="cls-3" d="M336,470c.74,7.19,1.69,18.32,2,32,1,42.73-5.64,53.52-8,57-3.15,4.65-9.44,12.12-22,18l204,19a170.83,170.83,0,0,0,0-30c-1.44-16.4-3.9-17.07-7-39-2.26-16-1.76-21.38-5-41-1.58-9.56-2.37-14.34-3-16C487.78,445.82,383.85,461.61,336,470Z" transform="translate(-79.5 -101.17)"/><path class="cls-4" d="M291,281s4,14,5,26,4,32,0,46-5,51,2,77,26,56,31,62,30,30,38,37,35,12,35,12h41a142.62,142.62,0,0,0,53-38c19.54-22.63,26.38-45.69,33-68,7.89-26.62,9.47-47.06,11.5-75.5a660,660,0,0,0,0-93l-76-90-78-7-79,33Z" transform="translate(-79.5 -101.17)"/><polygon class="cls-5" points="485 444.33 466 548.33 428 616.33 388 781.33 276 781.33 235 633.33 228 502.33 228 476.33 485 444.33"/><path class="cls-6" d="M355.5,811.5s57,31,105,6l5,101-5,48-65-12Z" transform="translate(-79.5 -101.17)"/><path class="cls-5" d="M757.5,624.5c23,90.71,32,160,32,160h0l39,144c7,9,6,2,7,9s18,62,18,62l-148.19.73L625.5,709.5C606.86,620.81,623.23,553.86,652,545c16.09-5,43.67,5.91,60,16a102.9,102.9,0,0,1,27,24C751.35,601,755.56,616.86,757.5,624.5Z" transform="translate(-79.5 -101.17)"/><path class="cls-7" d="M685,582s44,59,51,94,3,22,7,38,7-85-42-127S685,582,685,582Z" transform="translate(-79.5 -101.17)"/><path class="cls-8" d="M710,577s30,8,35,48-9-12-9-12S698,571,710,577Z" transform="translate(-79.5 -101.17)"/><path class="cls-5" d="M217.5,569.5s-57,12-70,44-26.21,199-26.21,199l48.21,136,41.5,52h24.5l31-157s-15-67-13-101,6-93,6-93l-6-80Z" transform="translate(-79.5 -101.17)"/><path class="cls-9" d="M667.5,984.5v16l-142.57-.36-23.35,0-127.73-.32-23.67-.06-83.68-.21s22-44,16-66-1-31-7-39S260.87,872,260.87,872V815.1l-7.37-44.6v-106l47-23,64-6s2,21,10,49,22,24,20,51-21,74-22,89,37,56,39,70,4,32,11,41,22,5,22,5,1-73,4-87-12-32-2-52,22-50,19-60,11-23,0-38,13-20,13-20l33-31,32.26,22,49.74,34,15.11,36v0l34.88,83Z" transform="translate(-79.5 -101.17)"/><path class="cls-10" d="M284,679s74,31,63,93,8,72,13,101,34,50,34,50-47-22-67-79,13-81-19-112S284,679,284,679Z" transform="translate(-79.5 -101.17)"/><circle class="cls-11" cx="212" cy="657.33" r="15.5"/><path class="cls-12" d="M654.47,908.48c-1.43-.68-47.28-22.87-67-79-20-57,13-81-19-112-19-18.4-23.9-33.63-24.74-43l49.74,34,15.11,36v0a71.49,71.49,0,0,1-1.12,13c-11,62,8,72,13,101C625.41,887,653.45,907.73,654.47,908.48Z" transform="translate(-79.5 -101.17)"/><circle class="cls-13" cx="472.5" cy="642.83" r="15.5"/><path class="cls-14" d="M494.5,744.5s74,31,63,93,8,72,13,101,34,50,34,50-47-22-67-79,13-81-19-112S494.5,744.5,494.5,744.5Z" transform="translate(-79.5 -101.17)"/><circle class="cls-15" cx="422.5" cy="722.83" r="15.5"/><path class="cls-16" d="M524.93,1000.14l-23.35,0C488,949.75,515.68,926.74,485.5,897.5c-32-31-24-53-24-53s74,31,63,93C519,968.33,521,986.3,524.93,1000.14Z" transform="translate(-79.5 -101.17)"/><circle class="cls-17" cx="389.5" cy="822.83" r="15.5"/><path class="cls-18" d="M376.5,980.5c-1.25,7.06-2.12,13.45-2.65,19.27l-23.67-.06c2-23.42,7.19-40-12.68-59.21-32-31-24-53-24-53S387.5,918.5,376.5,980.5Z" transform="translate(-79.5 -101.17)"/><circle class="cls-19" cx="241.5" cy="865.83" r="15.5"/><path class="cls-20" d="M312.47,878.48c-1.13-.53-29.85-14.43-51.6-47.77V815.1l-7.37-44.6V675c9.66,13.91,15.74,31.4,12,52.47-11,62,8,72,13,101C283.41,857,311.45,877.73,312.47,878.48Z" transform="translate(-79.5 -101.17)"/><path class="cls-1" d="M543,463c-12.52,14.07-15.53,25.88-16,34-.6,10.46,3,14.78,2,28-1.1,14.4-6.86,28.38-10,28-2.2-.27-2.3-7.53-5-32-3.73-33.81-4.84-31.75-4-37,2.63-16.39,11.18-22.1,17.92-44.61C530.19,431.81,532,424,532,424c1.45-6.26,2.4-11.48,3-15,.55-3.05,1.29-7.54,2-13,1.32-10.24,1.67-17.42,2-23,1.83-30.66,5.37-32.94,3-46,0-.22-1.86-7.32-5.5-21.5l-18-81s57,23,77,32,37,15,29,42-20,29,2,43,33,15,27,32-18,2-12,26,7,17,14,36,6,20,0,37-24,9-12,31,30,18,20,38-22,9-17,32,17,12,11,36-11,43-12,46-13-1-8,28-7,5-21-12-28-57-29-64c-.57-4,1.76-8.91.23-14.81-2.19-8.46-9.72-12.83-13.23-15.19-8.06-5.42-35.42-23.82-39.5-44.5-1.78-9,2.48-10.22,6-31A168.28,168.28,0,0,0,543,463Z" transform="translate(-79.5 -101.17)"/><path class="cls-21" d="M395.5,185.5c.35,5.65,0,14.48-5.5,21.5-10.72,13.68-29.83,6.2-47,19-12.32,9.18-5.16,15-19.5,33.5-19.48,25.1-39,27.16-47.19,48.87a23,23,0,0,0-.81,12.13c2,12,8,41,10,61s-8,36-4,62,19,48,6,64-22,10-22,30,9,21,6,33,2,6-9-6-16-36-9-53,7-26-5-39-24-16-23-37,8-25,17-47,9-32,4-46-21-37-9-59,31-23,38-42,14-48,35-59,46-28,64-25l30,5-9,5Z" transform="translate(-79.5 -101.17)"/><path class="cls-22" d="M413.5,118.5s15-23,30-16,57,7,57,7,28,19,29,25-12-4,0,23,11,29,28,45,20,23,21,29,13.49,18.23,13.74,23.12S607.5,300.5,625.5,316.5s15,34,14,39,25,25,22,40-2.48,13-11.24,26,5.24,47,11.24,66,7.48,21.75.24,34.88-2.24,37.12,1.76,51.12-5,20-11,30-3,61-3,61l-20-77,5-104-9-62-16-79-39-82L488,204.33,475.5,169.5l-65,2.15-6-20.15,10.72-16.17Z" transform="translate(-79.5 -101.17)"/><path class="cls-21" d="M419,200a68.16,68.16,0,0,1,32,10c6.09,3.85,11.73,9.9,23,22,11.87,12.74,13.22,16.15,23.5,25.5,4.9,4.46,7,5.65,10.14,9.66,3.5,4.44,5.91,9.85,11.86,22.34,10,21,33,43,43,68s22,8,13,28-31,39-16,54,22,20,8,33,12,22,20,40,6,35,15,50,6,12,4,33-6,21,2,32,4,8,4,8,1-14,1-26,18-19,9-38-15-14-13-41,21-18,12-47-15-20-20-44-13-21-3-40,18-27,8-44-10-22-25-49-12-23-30-48-38-48-42-68-5-32-25-43-46-10-56,0-33,16-33,16c-14.42,18.54-13.31,38-5.5,43.5C396.21,211.35,408.36,208.06,419,200Z" transform="translate(-79.5 -101.17)"/><path class="cls-22" d="M416.5,112.5s-38-15-61,5-67,36-74,58-20,19-17,38-10,24-18,34-7,26-9,34,21-5,21-5l44-77,64-30,44-7-3-18,16-19Z" transform="translate(-79.5 -101.17)"/><path class="cls-4" d="M123.5,802.5s32-154,52-167,112-71,112-71,34-23,53-23,63-14,75-15,68,4,72,5,39,1,39,1v5s-1,7,0,7,4.44-3.53,16.22,10.73S636.5,656.5,636.5,656.5s30,42,40,63,97,191,109,205,29,62,31,69,0,7,0,7h-162l-44-198s-16-73-35-90-19-15-19-15l-57-39s-22-5-30-4-53,10-53,10l-30,9s-13,2-19-1-9-10-6-11,37-13,37-13l-36-3s-21-3-27-1-39,14-47,17-40,21-46,23-6,7-19,6c0,0,11-4,10,4s-6,89-6,89l-1,76s1,95,2,104,1,36,1,36l-150,1Z" transform="translate(-79.5 -101.17)"/><path class="cls-23" d="M440.5,622.5s12-4,13,5,0,8,0,8-1-13,14-14a124.55,124.55,0,0,0,25-4l5-4s-19,3-29,4-44,2-44,2l-47-1s-24,7-36,6-15-4-15-4,3,6,44,4S440.5,622.5,440.5,622.5Z" transform="translate(-79.5 -101.17)"/><path class="cls-24" d="M348.5,595.5h90s38,2,49,0,16-11,13-18l-3,5s-2,12-53,8Z" transform="translate(-79.5 -101.17)"/><path class="cls-25" d="M321.5,577.5s56-13,65-13h66s43,5,48,6-15-6-15-6l-104-4-51,8S317.5,578.5,321.5,577.5Z" transform="translate(-79.5 -101.17)"/><path class="cls-26" d="M444.5,546.5s60,11,75,7,7-16,7-16,0-1-7,8S444.5,546.5,444.5,546.5Z" transform="translate(-79.5 -101.17)"/><path class="cls-27" d="M448.44,541c-.73,2.06-5.09,14.68.56,20,.71.67,1.4,1,12,3s12.93,2.13,16,1a16.35,16.35,0,0,0,6.5-4.5c.87-1,4.56-5.2,3.5-8.5s-6.29-4.14-11-5C469.51,545.81,460.23,543.94,448.44,541Z" transform="translate(-79.5 -101.17)"/><path class="cls-27" d="M364.69,569s-3.19,17.46-.19,21.46-16,6-16,6-3-19.08,0-25S364.69,569,364.69,569Z" transform="translate(-79.5 -101.17)"/><path class="cls-28" d="M480.5,349a10.5,10.5,0,0,1-21,0,10.43,10.43,0,0,1,1.65-5.65,32,32,0,0,1,16.35.15l1.73.5a9.93,9.93,0,0,1,.89,2.21A10.27,10.27,0,0,1,480.5,349Z" transform="translate(-79.5 -101.17)"/><path class="cls-28" d="M360,347.5v0a10.5,10.5,0,0,1-21,0,10.27,10.27,0,0,1,.71-3.77,9.94,9.94,0,0,1,1.33-2.44,37.79,37.79,0,0,1,18.41,2.87A10.26,10.26,0,0,1,360,347.5Z" transform="translate(-79.5 -101.17)"/><path class="cls-29" d="M373.5,355.5c-2.54-3.05-7.91-5.83-13.5-8a74.35,74.35,0,0,0-14.5-4,16.38,16.38,0,0,0-5.79.23,29.4,29.4,0,0,0-10.21,4.77c-2.12,1.41,1.74,4.31,4.19,5.9-6.75-3.75-19.19-7.9-19.19-7.9s7-2,25-5c.52-.09,1-.16,1.54-.21a37.79,37.79,0,0,1,18.41,2.87,54.14,54.14,0,0,1,14.05,8.34C376.5,351.5,373.5,355.5,373.5,355.5Z" transform="translate(-79.5 -101.17)"/><path class="cls-29" d="M501.5,348.5s-10,8-14,9,7-4,5-6c-1.25-1.25-7.14-3.65-12.38-5.29a32.4,32.4,0,0,0-7.62-1.71,68,68,0,0,0-12.72,2.08C454.36,348,449,350,447.5,352.5c-3,5-4-1-4-1a52,52,0,0,1,17.65-8.15,32,32,0,0,1,16.35.15l1.73.5C495,348.5,501.5,348.5,501.5,348.5Z" transform="translate(-79.5 -101.17)"/><path class="cls-5" d="M434.5,398.5s-9,0-2,5-2,5,7,5,6,13,6,13S455.5,404.5,434.5,398.5Z" transform="translate(-79.5 -101.17)"/><path class="cls-5" d="M403.5,395.5s-1,13,0,18-2-1-7,0S402.5,405.5,403.5,395.5Z" transform="translate(-79.5 -101.17)"/><path class="cls-6" d="M422.5,426.5s8,1,11,4-7,2-9,0A6.19,6.19,0,0,1,422.5,426.5Z" transform="translate(-79.5 -101.17)"/><path class="cls-6" d="M401.5,429.5h4s5,3,3,3S397.5,429.5,401.5,429.5Z" transform="translate(-79.5 -101.17)"/><path class="cls-6" d="M365.5,461.5s-2-1,0,3c0,0,41,8,47,8s49-6,52-8,0-3,0-3-2,5-49,9C415.5,470.5,393.5,469.5,365.5,461.5Z" transform="translate(-79.5 -101.17)"/><path class="cls-5" d="M481.5,441.5s12,2,15,0-5,14-8,20-1,5-4-5S478.5,439.5,481.5,441.5Z" transform="translate(-79.5 -101.17)"/><path class="cls-5" d="M507.5,434.5c1,8,4,3,4,3s-4-7-4-5Z" transform="translate(-79.5 -101.17)"/><path class="cls-5" d="M497.5,470.5s-15,32-19,33Z" transform="translate(-79.5 -101.17)"/><path class="cls-5" d="M319.5,435.5s4-1,7,6S317.5,435.5,319.5,435.5Z" transform="translate(-79.5 -101.17)"/><path class="cls-5" d="M395.5,503.5s23-9,39,2,8-5,4-5-36-6-47-3S392.5,504.5,395.5,503.5Z" transform="translate(-79.5 -101.17)"/><path class="cls-6" d="M434.5,318.5s20-10,42-8,29,3,35,4,10-3,6,0-24,4-29,4-25,2-25,2-16,7-20,7S425.5,325.5,434.5,318.5Z" transform="translate(-79.5 -101.17)"/><path class="cls-6" d="M370.5,318.5a9.5,9.5,0,0,1,4.5,5.59c.18.71,1,3.84-.5,5.41-2.56,2.7-9.35-1.9-31-8-.54-.15-1-.29-1.47-.41-2.81-.66-7.29-.89-32.53-2.59h0s-1.93-1.58-2-2c-.11-1,9.44-4.29,22-5C338.68,311,352.79,311.66,370.5,318.5Z" transform="translate(-79.5 -101.17)"/><g class="cls-30"><path class="cls-5" d="M356,383s25.89-14,30.95-19S407,347,405,360s1,33-11,39-31-11-38-11S356,383,356,383Z" transform="translate(-79.5 -101.17)"/></g><path class="cls-31" d="M389.5,348.5c2.8.8,12.48,1.1,37,0,0,0,3.91-24,28.45-24.48s63.55-.52,70.55,3.48a29,29,0,0,1,10,9v-4h10v13h-9s-15,36-29,45-40,10-48,8a39.83,39.83,0,0,1-14.74-7.59c-.5-.41-9.77-8.07-13.76-19.91-.46-1.38-.09-.54-2.5-9.5-1.07-4-1.6-5.86-1.5-8.5a18.29,18.29,0,0,1,1.5-6.5c.33.67.67,1.33,1,2a90.83,90.83,0,0,0,2,14A46.8,46.8,0,0,0,434,371a41.34,41.34,0,0,0,6,10,43.92,43.92,0,0,0,10,9,50.64,50.64,0,0,0,12,6,68.86,68.86,0,0,0,18,1,72.33,72.33,0,0,0,12-2,39.63,39.63,0,0,0,9-3,33,33,0,0,0,5.5-3.5c7.43-5.74,12.44-13.84,16.5-20.5,2.76-4.52,4.7-8.31,6-11,1.92-4,3.39-7.56,4.5-10.5-.67-2.33-1.33-4.67-2-7,0,0-8-12-22-12h-54s-15-2-26,18c0,0,1.07,2.14.08,3.68-.43.68-1.43.45-2.08,1.32a3.14,3.14,0,0,0-.5,1.5c-.56,2.1-10.33.79-18,1-3.76.1-16.17.83-18-1l-1.5-1.5a3.27,3.27,0,0,1,2.5.5c1.64,1.33.93,4.82,0,8-2.81,9.58-4.74,16.14-10.5,22.5-12,13.24-30.06,13.84-35,14,0,0-27.36.89-53.5-26.5a47.13,47.13,0,0,1-9-13c-1.43-3.09-3.42-7.41-3.5-12.5v-6h0l-5-1v-13l6,2s7-9,22-9c5.42,0,8.64-.57,20.57.39,29.92,2.43,30.89,2.19,36.43,3.61,0,0,19.77,6.16,25,14a32.66,32.66,0,0,1,3,5.73s.86,2,3,9.27c-1.85.25-4.09.27-5-1-.75-1-.17-2.36,0-4,.41-3.91-1.76-7.15-3-9-.85-1.27-1.75-2.1-11-7-8-4.22-9.87-4.95-11.5-5.5a53.5,53.5,0,0,0-8-2,65,65,0,0,0-12-1c-11.13,0-11.44-.73-36.5-.5a37,37,0,0,0-15,3c-5.67,2.52-6.7,4.95-7,6s-.09,1.53,0,6c.08,4.06-.09,4.58,0,6,.2,3.12,1.33,5,4,10,4.77,8.94,4.43,8.74,5.5,10.5a68.82,68.82,0,0,0,31,26c6.53,2.76,20.25,8.56,36.5,4.5,4.6-1.15,13.83-3.6,21-12,5.44-6.37,7.79-14,8-19,.18-4.4.27-6.61-1-9-.54-1-1.47-2.35-1-3S389.1,348.39,389.5,348.5Z" transform="translate(-79.5 -101.17)"/><g class="cls-30"><path class="cls-5" d="M431.54,354.15C439,356,439,368,454,377s9,33,5,29-26-26-27-35A105.55,105.55,0,0,1,431.54,354.15Z" transform="translate(-79.5 -101.17)"/></g></g></svg>