<svg width="1920" height="911"><defs><linearGradient id="pinkToBlueGradient">
        <stop offset="0%" style="stop-color:rgb(255,182,193);stop-opacity:1"></stop>
        <stop offset="100%" style="stop-color:rgb(173,216,230);stop-opacity:1"></stop>
    </linearGradient></defs><path d="M 0 100 Q 50 50, 100 100 T 200 100 T 300 100 T 400 100 Q 450 50, 500 100 T 600 100 T 700 100 T 800 100 Q 850 50, 900 100 T 1000 100 T 1100 100 T 1200 100 Q 1250 50, 1300 100 T 1400 100 T 1500 100 T 1600 100 Q 1650 50, 1700 100 T 1800 100 T 1900 100 T 2000 100" stroke="url(#pinkToBlueGradient)" fill="none" stroke-width="2"></path><path d="M 100 100 Q 150 50, 200 100 T 300 100 T 400 100 T 500 100 Q 550 50, 600 100 T 700 100 T 800 100 T 900 100 Q 950 50, 1000 100 T 1100 100 T 1200 100 T 1300 100 Q 1350 50, 1400 100 T 1500 100 T 1600 100 T 1700 100 Q 1750 50, 1800 100 T 1900 100 T 2000 100 T 2100 100" stroke="url(#pinkToBlueGradient)" fill="none" stroke-width="2"></path><path d="M 0 110 Q 50 60, 100 110 T 200 110 T 300 110 T 400 110 Q 450 60, 500 110 T 600 110 T 700 110 T 800 110 Q 850 60, 900 110 T 1000 110 T 1100 110 T 1200 110 Q 1250 60, 1300 110 T 1400 110 T 1500 110 T 1600 110 Q 1650 60, 1700 110 T 1800 110 T 1900 110 T 2000 110" stroke="url(#pinkToBlueGradient)" fill="none" stroke-width="2"></path><path d="M 100 110 Q 150 60, 200 110 T 300 110 T 400 110 T 500 110 Q 550 60, 600 110 T 700 110 T 800 110 T 900 110 Q 950 60, 1000 110 T 1100 110 T 1200 110 T 1300 110 Q 1350 60, 1400 110 T 1500 110 T 1600 110 T 1700 110 Q 1750 60, 1800 110 T 1900 110 T 2000 110 T 2100 110" stroke="url(#pinkToBlueGradient)" fill="none" stroke-width="2"></path><path d="M 0 120 Q 50 70, 100 120 T 200 120 T 300 120 T 400 120 Q 450 70, 500 120 T 600 120 T 700 120 T 800 120 Q 850 70, 900 120 T 1000 120 T 1100 120 T 1200 120 Q 1250 70, 1300 120 T 1400 120 T 1500 120 T 1600 120 Q 1650 70, 1700 120 T 1800 120 T 1900 120 T 2000 120" stroke="url(#pinkToBlueGradient)" fill="none" stroke-width="2"></path><path d="M 100 120 Q 150 70, 200 120 T 300 120 T 400 120 T 500 120 Q 550 70, 600 120 T 700 120 T 800 120 T 900 120 Q 950 70, 1000 120 T 1100 120 T 1200 120 T 1300 120 Q 1350 70, 1400 120 T 1500 120 T 1600 120 T 1700 120 Q 1750 70, 1800 120 T 1900 120 T 2000 120 T 2100 120" stroke="url(#pinkToBlueGradient)" fill="none" stroke-width="2"></path><path d="M 0 130 Q 50 80, 100 130 T 200 130 T 300 130 T 400 130 Q 450 80, 500 130 T 600 130 T 700 130 T 800 130 Q 850 80, 900 130 T 1000 130 T 1100 130 T 1200 130 Q 1250 80, 1300 130 T 1400 130 T 1500 130 T 1600 130 Q 1650 80, 1700 130 T 1800 130 T 1900 130 T 2000 130" stroke="url(#pinkToBlueGradient)" fill="none" stroke-width="2"></path><path d="M 100 130 Q 150 80, 200 130 T 300 130 T 400 130 T 500 130 Q 550 80, 600 130 T 700 130 T 800 130 T 900 130 Q 950 80, 1000 130 T 1100 130 T 1200 130 T 1300 130 Q 1350 80, 1400 130 T 1500 130 T 1600 130 T 1700 130 Q 1750 80, 1800 130 T 1900 130 T 2000 130 T 2100 130" stroke="url(#pinkToBlueGradient)" fill="none" stroke-width="2"></path><path d="M 0 140 Q 50 90, 100 140 T 200 140 T 300 140 T 400 140 Q 450 90, 500 140 T 600 140 T 700 140 T 800 140 Q 850 90, 900 140 T 1000 140 T 1100 140 T 1200 140 Q 1250 90, 1300 140 T 1400 140 T 1500 140 T 1600 140 Q 1650 90, 1700 140 T 1800 140 T 1900 140 T 2000 140" stroke="url(#pinkToBlueGradient)" fill="none" stroke-width="2"></path><path d="M 100 140 Q 150 90, 200 140 T 300 140 T 400 140 T 500 140 Q 550 90, 600 140 T 700 140 T 800 140 T 900 140 Q 950 90, 1000 140 T 1100 140 T 1200 140 T 1300 140 Q 1350 90, 1400 140 T 1500 140 T 1600 140 T 1700 140 Q 1750 90, 1800 140 T 1900 140 T 2000 140 T 2100 140" stroke="url(#pinkToBlueGradient)" fill="none" stroke-width="2"></path><path d="M 0 150 Q 50 100, 100 150 T 200 150 T 300 150 T 400 150 Q 450 100, 500 150 T 600 150 T 700 150 T 800 150 Q 850 100, 900 150 T 1000 150 T 1100 150 T 1200 150 Q 1250 100, 1300 150 T 1400 150 T 1500 150 T 1600 150 Q 1650 100, 1700 150 T 1800 150 T 1900 150 T 2000 150" stroke="url(#pinkToBlueGradient)" fill="none" stroke-width="2"></path><path d="M 100 150 Q 150 100, 200 150 T 300 150 T 400 150 T 500 150 Q 550 100, 600 150 T 700 150 T 800 150 T 900 150 Q 950 100, 1000 150 T 1100 150 T 1200 150 T 1300 150 Q 1350 100, 1400 150 T 1500 150 T 1600 150 T 1700 150 Q 1750 100, 1800 150 T 1900 150 T 2000 150 T 2100 150" stroke="url(#pinkToBlueGradient)" fill="none" stroke-width="2"></path><path d="M 0 160 Q 50 110, 100 160 T 200 160 T 300 160 T 400 160 Q 450 110, 500 160 T 600 160 T 700 160 T 800 160 Q 850 110, 900 160 T 1000 160 T 1100 160 T 1200 160 Q 1250 110, 1300 160 T 1400 160 T 1500 160 T 1600 160 Q 1650 110, 1700 160 T 1800 160 T 1900 160 T 2000 160" stroke="url(#pinkToBlueGradient)" fill="none" stroke-width="2"></path><path d="M 100 160 Q 150 110, 200 160 T 300 160 T 400 160 T 500 160 Q 550 110, 600 160 T 700 160 T 800 160 T 900 160 Q 950 110, 1000 160 T 1100 160 T 1200 160 T 1300 160 Q 1350 110, 1400 160 T 1500 160 T 1600 160 T 1700 160 Q 1750 110, 1800 160 T 1900 160 T 2000 160 T 2100 160" stroke="url(#pinkToBlueGradient)" fill="none" stroke-width="2"></path><path d="M 0 170 Q 50 120, 100 170 T 200 170 T 300 170 T 400 170 Q 450 120, 500 170 T 600 170 T 700 170 T 800 170 Q 850 120, 900 170 T 1000 170 T 1100 170 T 1200 170 Q 1250 120, 1300 170 T 1400 170 T 1500 170 T 1600 170 Q 1650 120, 1700 170 T 1800 170 T 1900 170 T 2000 170" stroke="url(#pinkToBlueGradient)" fill="none" stroke-width="2"></path><path d="M 100 170 Q 150 120, 200 170 T 300 170 T 400 170 T 500 170 Q 550 120, 600 170 T 700 170 T 800 170 T 900 170 Q 950 120, 1000 170 T 1100 170 T 1200 170 T 1300 170 Q 1350 120, 1400 170 T 1500 170 T 1600 170 T 1700 170 Q 1750 120, 1800 170 T 1900 170 T 2000 170 T 2100 170" stroke="url(#pinkToBlueGradient)" fill="none" stroke-width="2"></path><path d="M 0 180 Q 50 130, 100 180 T 200 180 T 300 180 T 400 180 Q 450 130, 500 180 T 600 180 T 700 180 T 800 180 Q 850 130, 900 180 T 1000 180 T 1100 180 T 1200 180 Q 1250 130, 1300 180 T 1400 180 T 1500 180 T 1600 180 Q 1650 130, 1700 180 T 1800 180 T 1900 180 T 2000 180" stroke="url(#pinkToBlueGradient)" fill="none" stroke-width="2"></path><path d="M 100 180 Q 150 130, 200 180 T 300 180 T 400 180 T 500 180 Q 550 130, 600 180 T 700 180 T 800 180 T 900 180 Q 950 130, 1000 180 T 1100 180 T 1200 180 T 1300 180 Q 1350 130, 1400 180 T 1500 180 T 1600 180 T 1700 180 Q 1750 130, 1800 180 T 1900 180 T 2000 180 T 2100 180" stroke="url(#pinkToBlueGradient)" fill="none" stroke-width="2"></path><path d="M 0 190 Q 50 140, 100 190 T 200 190 T 300 190 T 400 190 Q 450 140, 500 190 T 600 190 T 700 190 T 800 190 Q 850 140, 900 190 T 1000 190 T 1100 190 T 1200 190 Q 1250 140, 1300 190 T 1400 190 T 1500 190 T 1600 190 Q 1650 140, 1700 190 T 1800 190 T 1900 190 T 2000 190" stroke="url(#pinkToBlueGradient)" fill="none" stroke-width="2"></path><path d="M 100 190 Q 150 140, 200 190 T 300 190 T 400 190 T 500 190 Q 550 140, 600 190 T 700 190 T 800 190 T 900 190 Q 950 140, 1000 190 T 1100 190 T 1200 190 T 1300 190 Q 1350 140, 1400 190 T 1500 190 T 1600 190 T 1700 190 Q 1750 140, 1800 190 T 1900 190 T 2000 190 T 2100 190" stroke="url(#pinkToBlueGradient)" fill="none" stroke-width="2"></path><path d="M 0 200 Q 50 150, 100 200 T 200 200 T 300 200 T 400 200 Q 450 150, 500 200 T 600 200 T 700 200 T 800 200 Q 850 150, 900 200 T 1000 200 T 1100 200 T 1200 200 Q 1250 150, 1300 200 T 1400 200 T 1500 200 T 1600 200 Q 1650 150, 1700 200 T 1800 200 T 1900 200 T 2000 200" stroke="url(#pinkToBlueGradient)" fill="none" stroke-width="2"></path><path d="M 100 200 Q 150 150, 200 200 T 300 200 T 400 200 T 500 200 Q 550 150, 600 200 T 700 200 T 800 200 T 900 200 Q 950 150, 1000 200 T 1100 200 T 1200 200 T 1300 200 Q 1350 150, 1400 200 T 1500 200 T 1600 200 T 1700 200 Q 1750 150, 1800 200 T 1900 200 T 2000 200 T 2100 200" stroke="url(#pinkToBlueGradient)" fill="none" stroke-width="2"></path><path d="M 0 210 Q 50 160, 100 210 T 200 210 T 300 210 T 400 210 Q 450 160, 500 210 T 600 210 T 700 210 T 800 210 Q 850 160, 900 210 T 1000 210 T 1100 210 T 1200 210 Q 1250 160, 1300 210 T 1400 210 T 1500 210 T 1600 210 Q 1650 160, 1700 210 T 1800 210 T 1900 210 T 2000 210" stroke="url(#pinkToBlueGradient)" fill="none" stroke-width="2"></path><path d="M 100 210 Q 150 160, 200 210 T 300 210 T 400 210 T 500 210 Q 550 160, 600 210 T 700 210 T 800 210 T 900 210 Q 950 160, 1000 210 T 1100 210 T 1200 210 T 1300 210 Q 1350 160, 1400 210 T 1500 210 T 1600 210 T 1700 210 Q 1750 160, 1800 210 T 1900 210 T 2000 210 T 2100 210" stroke="url(#pinkToBlueGradient)" fill="none" stroke-width="2"></path><path d="M 0 220 Q 50 170, 100 220 T 200 220 T 300 220 T 400 220 Q 450 170, 500 220 T 600 220 T 700 220 T 800 220 Q 850 170, 900 220 T 1000 220 T 1100 220 T 1200 220 Q 1250 170, 1300 220 T 1400 220 T 1500 220 T 1600 220 Q 1650 170, 1700 220 T 1800 220 T 1900 220 T 2000 220" stroke="url(#pinkToBlueGradient)" fill="none" stroke-width="2"></path><path d="M 100 220 Q 150 170, 200 220 T 300 220 T 400 220 T 500 220 Q 550 170, 600 220 T 700 220 T 800 220 T 900 220 Q 950 170, 1000 220 T 1100 220 T 1200 220 T 1300 220 Q 1350 170, 1400 220 T 1500 220 T 1600 220 T 1700 220 Q 1750 170, 1800 220 T 1900 220 T 2000 220 T 2100 220" stroke="url(#pinkToBlueGradient)" fill="none" stroke-width="2"></path><path d="M 0 230 Q 50 180, 100 230 T 200 230 T 300 230 T 400 230 Q 450 180, 500 230 T 600 230 T 700 230 T 800 230 Q 850 180, 900 230 T 1000 230 T 1100 230 T 1200 230 Q 1250 180, 1300 230 T 1400 230 T 1500 230 T 1600 230 Q 1650 180, 1700 230 T 1800 230 T 1900 230 T 2000 230" stroke="url(#pinkToBlueGradient)" fill="none" stroke-width="2"></path><path d="M 100 230 Q 150 180, 200 230 T 300 230 T 400 230 T 500 230 Q 550 180, 600 230 T 700 230 T 800 230 T 900 230 Q 950 180, 1000 230 T 1100 230 T 1200 230 T 1300 230 Q 1350 180, 1400 230 T 1500 230 T 1600 230 T 1700 230 Q 1750 180, 1800 230 T 1900 230 T 2000 230 T 2100 230" stroke="url(#pinkToBlueGradient)" fill="none" stroke-width="2"></path><path d="M 0 240 Q 50 190, 100 240 T 200 240 T 300 240 T 400 240 Q 450 190, 500 240 T 600 240 T 700 240 T 800 240 Q 850 190, 900 240 T 1000 240 T 1100 240 T 1200 240 Q 1250 190, 1300 240 T 1400 240 T 1500 240 T 1600 240 Q 1650 190, 1700 240 T 1800 240 T 1900 240 T 2000 240" stroke="url(#pinkToBlueGradient)" fill="none" stroke-width="2"></path><path d="M 100 240 Q 150 190, 200 240 T 300 240 T 400 240 T 500 240 Q 550 190, 600 240 T 700 240 T 800 240 T 900 240 Q 950 190, 1000 240 T 1100 240 T 1200 240 T 1300 240 Q 1350 190, 1400 240 T 1500 240 T 1600 240 T 1700 240 Q 1750 190, 1800 240 T 1900 240 T 2000 240 T 2100 240" stroke="url(#pinkToBlueGradient)" fill="none" stroke-width="2"></path><path d="M 0 250 Q 50 200, 100 250 T 200 250 T 300 250 T 400 250 Q 450 200, 500 250 T 600 250 T 700 250 T 800 250 Q 850 200, 900 250 T 1000 250 T 1100 250 T 1200 250 Q 1250 200, 1300 250 T 1400 250 T 1500 250 T 1600 250 Q 1650 200, 1700 250 T 1800 250 T 1900 250 T 2000 250" stroke="url(#pinkToBlueGradient)" fill="none" stroke-width="2"></path><path d="M 100 250 Q 150 200, 200 250 T 300 250 T 400 250 T 500 250 Q 550 200, 600 250 T 700 250 T 800 250 T 900 250 Q 950 200, 1000 250 T 1100 250 T 1200 250 T 1300 250 Q 1350 200, 1400 250 T 1500 250 T 1600 250 T 1700 250 Q 1750 200, 1800 250 T 1900 250 T 2000 250 T 2100 250" stroke="url(#pinkToBlueGradient)" fill="none" stroke-width="2"></path><path d="M 0 260 Q 50 210, 100 260 T 200 260 T 300 260 T 400 260 Q 450 210, 500 260 T 600 260 T 700 260 T 800 260 Q 850 210, 900 260 T 1000 260 T 1100 260 T 1200 260 Q 1250 210, 1300 260 T 1400 260 T 1500 260 T 1600 260 Q 1650 210, 1700 260 T 1800 260 T 1900 260 T 2000 260" stroke="url(#pinkToBlueGradient)" fill="none" stroke-width="2"></path><path d="M 100 260 Q 150 210, 200 260 T 300 260 T 400 260 T 500 260 Q 550 210, 600 260 T 700 260 T 800 260 T 900 260 Q 950 210, 1000 260 T 1100 260 T 1200 260 T 1300 260 Q 1350 210, 1400 260 T 1500 260 T 1600 260 T 1700 260 Q 1750 210, 1800 260 T 1900 260 T 2000 260 T 2100 260" stroke="url(#pinkToBlueGradient)" fill="none" stroke-width="2"></path><path d="M 0 270 Q 50 220, 100 270 T 200 270 T 300 270 T 400 270 Q 450 220, 500 270 T 600 270 T 700 270 T 800 270 Q 850 220, 900 270 T 1000 270 T 1100 270 T 1200 270 Q 1250 220, 1300 270 T 1400 270 T 1500 270 T 1600 270 Q 1650 220, 1700 270 T 1800 270 T 1900 270 T 2000 270" stroke="url(#pinkToBlueGradient)" fill="none" stroke-width="2"></path><path d="M 100 270 Q 150 220, 200 270 T 300 270 T 400 270 T 500 270 Q 550 220, 600 270 T 700 270 T 800 270 T 900 270 Q 950 220, 1000 270 T 1100 270 T 1200 270 T 1300 270 Q 1350 220, 1400 270 T 1500 270 T 1600 270 T 1700 270 Q 1750 220, 1800 270 T 1900 270 T 2000 270 T 2100 270" stroke="url(#pinkToBlueGradient)" fill="none" stroke-width="2"></path><path d="M 0 280 Q 50 230, 100 280 T 200 280 T 300 280 T 400 280 Q 450 230, 500 280 T 600 280 T 700 280 T 800 280 Q 850 230, 900 280 T 1000 280 T 1100 280 T 1200 280 Q 1250 230, 1300 280 T 1400 280 T 1500 280 T 1600 280 Q 1650 230, 1700 280 T 1800 280 T 1900 280 T 2000 280" stroke="url(#pinkToBlueGradient)" fill="none" stroke-width="2"></path><path d="M 100 280 Q 150 230, 200 280 T 300 280 T 400 280 T 500 280 Q 550 230, 600 280 T 700 280 T 800 280 T 900 280 Q 950 230, 1000 280 T 1100 280 T 1200 280 T 1300 280 Q 1350 230, 1400 280 T 1500 280 T 1600 280 T 1700 280 Q 1750 230, 1800 280 T 1900 280 T 2000 280 T 2100 280" stroke="url(#pinkToBlueGradient)" fill="none" stroke-width="2"></path><path d="M 0 290 Q 50 240, 100 290 T 200 290 T 300 290 T 400 290 Q 450 240, 500 290 T 600 290 T 700 290 T 800 290 Q 850 240, 900 290 T 1000 290 T 1100 290 T 1200 290 Q 1250 240, 1300 290 T 1400 290 T 1500 290 T 1600 290 Q 1650 240, 1700 290 T 1800 290 T 1900 290 T 2000 290" stroke="url(#pinkToBlueGradient)" fill="none" stroke-width="2"></path><path d="M 100 290 Q 150 240, 200 290 T 300 290 T 400 290 T 500 290 Q 550 240, 600 290 T 700 290 T 800 290 T 900 290 Q 950 240, 1000 290 T 1100 290 T 1200 290 T 1300 290 Q 1350 240, 1400 290 T 1500 290 T 1600 290 T 1700 290 Q 1750 240, 1800 290 T 1900 290 T 2000 290 T 2100 290" stroke="url(#pinkToBlueGradient)" fill="none" stroke-width="2"></path><path d="M 0 300 Q 50 250, 100 300 T 200 300 T 300 300 T 400 300 Q 450 250, 500 300 T 600 300 T 700 300 T 800 300 Q 850 250, 900 300 T 1000 300 T 1100 300 T 1200 300 Q 1250 250, 1300 300 T 1400 300 T 1500 300 T 1600 300 Q 1650 250, 1700 300 T 1800 300 T 1900 300 T 2000 300" stroke="url(#pinkToBlueGradient)" fill="none" stroke-width="2"></path><path d="M 100 300 Q 150 250, 200 300 T 300 300 T 400 300 T 500 300 Q 550 250, 600 300 T 700 300 T 800 300 T 900 300 Q 950 250, 1000 300 T 1100 300 T 1200 300 T 1300 300 Q 1350 250, 1400 300 T 1500 300 T 1600 300 T 1700 300 Q 1750 250, 1800 300 T 1900 300 T 2000 300 T 2100 300" stroke="url(#pinkToBlueGradient)" fill="none" stroke-width="2"></path><path d="M 0 310 Q 50 260, 100 310 T 200 310 T 300 310 T 400 310 Q 450 260, 500 310 T 600 310 T 700 310 T 800 310 Q 850 260, 900 310 T 1000 310 T 1100 310 T 1200 310 Q 1250 260, 1300 310 T 1400 310 T 1500 310 T 1600 310 Q 1650 260, 1700 310 T 1800 310 T 1900 310 T 2000 310" stroke="url(#pinkToBlueGradient)" fill="none" stroke-width="2"></path><path d="M 100 310 Q 150 260, 200 310 T 300 310 T 400 310 T 500 310 Q 550 260, 600 310 T 700 310 T 800 310 T 900 310 Q 950 260, 1000 310 T 1100 310 T 1200 310 T 1300 310 Q 1350 260, 1400 310 T 1500 310 T 1600 310 T 1700 310 Q 1750 260, 1800 310 T 1900 310 T 2000 310 T 2100 310" stroke="url(#pinkToBlueGradient)" fill="none" stroke-width="2"></path><path d="M 0 320 Q 50 270, 100 320 T 200 320 T 300 320 T 400 320 Q 450 270, 500 320 T 600 320 T 700 320 T 800 320 Q 850 270, 900 320 T 1000 320 T 1100 320 T 1200 320 Q 1250 270, 1300 320 T 1400 320 T 1500 320 T 1600 320 Q 1650 270, 1700 320 T 1800 320 T 1900 320 T 2000 320" stroke="url(#pinkToBlueGradient)" fill="none" stroke-width="2"></path><path d="M 100 320 Q 150 270, 200 320 T 300 320 T 400 320 T 500 320 Q 550 270, 600 320 T 700 320 T 800 320 T 900 320 Q 950 270, 1000 320 T 1100 320 T 1200 320 T 1300 320 Q 1350 270, 1400 320 T 1500 320 T 1600 320 T 1700 320 Q 1750 270, 1800 320 T 1900 320 T 2000 320 T 2100 320" stroke="url(#pinkToBlueGradient)" fill="none" stroke-width="2"></path><path d="M 0 330 Q 50 280, 100 330 T 200 330 T 300 330 T 400 330 Q 450 280, 500 330 T 600 330 T 700 330 T 800 330 Q 850 280, 900 330 T 1000 330 T 1100 330 T 1200 330 Q 1250 280, 1300 330 T 1400 330 T 1500 330 T 1600 330 Q 1650 280, 1700 330 T 1800 330 T 1900 330 T 2000 330" stroke="url(#pinkToBlueGradient)" fill="none" stroke-width="2"></path><path d="M 100 330 Q 150 280, 200 330 T 300 330 T 400 330 T 500 330 Q 550 280, 600 330 T 700 330 T 800 330 T 900 330 Q 950 280, 1000 330 T 1100 330 T 1200 330 T 1300 330 Q 1350 280, 1400 330 T 1500 330 T 1600 330 T 1700 330 Q 1750 280, 1800 330 T 1900 330 T 2000 330 T 2100 330" stroke="url(#pinkToBlueGradient)" fill="none" stroke-width="2"></path><path d="M 0 340 Q 50 290, 100 340 T 200 340 T 300 340 T 400 340 Q 450 290, 500 340 T 600 340 T 700 340 T 800 340 Q 850 290, 900 340 T 1000 340 T 1100 340 T 1200 340 Q 1250 290, 1300 340 T 1400 340 T 1500 340 T 1600 340 Q 1650 290, 1700 340 T 1800 340 T 1900 340 T 2000 340" stroke="url(#pinkToBlueGradient)" fill="none" stroke-width="2"></path><path d="M 100 340 Q 150 290, 200 340 T 300 340 T 400 340 T 500 340 Q 550 290, 600 340 T 700 340 T 800 340 T 900 340 Q 950 290, 1000 340 T 1100 340 T 1200 340 T 1300 340 Q 1350 290, 1400 340 T 1500 340 T 1600 340 T 1700 340 Q 1750 290, 1800 340 T 1900 340 T 2000 340 T 2100 340" stroke="url(#pinkToBlueGradient)" fill="none" stroke-width="2"></path><path d="M 0 350 Q 50 300, 100 350 T 200 350 T 300 350 T 400 350 Q 450 300, 500 350 T 600 350 T 700 350 T 800 350 Q 850 300, 900 350 T 1000 350 T 1100 350 T 1200 350 Q 1250 300, 1300 350 T 1400 350 T 1500 350 T 1600 350 Q 1650 300, 1700 350 T 1800 350 T 1900 350 T 2000 350" stroke="url(#pinkToBlueGradient)" fill="none" stroke-width="2"></path><path d="M 100 350 Q 150 300, 200 350 T 300 350 T 400 350 T 500 350 Q 550 300, 600 350 T 700 350 T 800 350 T 900 350 Q 950 300, 1000 350 T 1100 350 T 1200 350 T 1300 350 Q 1350 300, 1400 350 T 1500 350 T 1600 350 T 1700 350 Q 1750 300, 1800 350 T 1900 350 T 2000 350 T 2100 350" stroke="url(#pinkToBlueGradient)" fill="none" stroke-width="2"></path><path d="M 0 360 Q 50 310, 100 360 T 200 360 T 300 360 T 400 360 Q 450 310, 500 360 T 600 360 T 700 360 T 800 360 Q 850 310, 900 360 T 1000 360 T 1100 360 T 1200 360 Q 1250 310, 1300 360 T 1400 360 T 1500 360 T 1600 360 Q 1650 310, 1700 360 T 1800 360 T 1900 360 T 2000 360" stroke="url(#pinkToBlueGradient)" fill="none" stroke-width="2"></path><path d="M 100 360 Q 150 310, 200 360 T 300 360 T 400 360 T 500 360 Q 550 310, 600 360 T 700 360 T 800 360 T 900 360 Q 950 310, 1000 360 T 1100 360 T 1200 360 T 1300 360 Q 1350 310, 1400 360 T 1500 360 T 1600 360 T 1700 360 Q 1750 310, 1800 360 T 1900 360 T 2000 360 T 2100 360" stroke="url(#pinkToBlueGradient)" fill="none" stroke-width="2"></path><path d="M 0 370 Q 50 320, 100 370 T 200 370 T 300 370 T 400 370 Q 450 320, 500 370 T 600 370 T 700 370 T 800 370 Q 850 320, 900 370 T 1000 370 T 1100 370 T 1200 370 Q 1250 320, 1300 370 T 1400 370 T 1500 370 T 1600 370 Q 1650 320, 1700 370 T 1800 370 T 1900 370 T 2000 370" stroke="url(#pinkToBlueGradient)" fill="none" stroke-width="2"></path><path d="M 100 370 Q 150 320, 200 370 T 300 370 T 400 370 T 500 370 Q 550 320, 600 370 T 700 370 T 800 370 T 900 370 Q 950 320, 1000 370 T 1100 370 T 1200 370 T 1300 370 Q 1350 320, 1400 370 T 1500 370 T 1600 370 T 1700 370 Q 1750 320, 1800 370 T 1900 370 T 2000 370 T 2100 370" stroke="url(#pinkToBlueGradient)" fill="none" stroke-width="2"></path><path d="M 0 380 Q 50 330, 100 380 T 200 380 T 300 380 T 400 380 Q 450 330, 500 380 T 600 380 T 700 380 T 800 380 Q 850 330, 900 380 T 1000 380 T 1100 380 T 1200 380 Q 1250 330, 1300 380 T 1400 380 T 1500 380 T 1600 380 Q 1650 330, 1700 380 T 1800 380 T 1900 380 T 2000 380" stroke="url(#pinkToBlueGradient)" fill="none" stroke-width="2"></path><path d="M 100 380 Q 150 330, 200 380 T 300 380 T 400 380 T 500 380 Q 550 330, 600 380 T 700 380 T 800 380 T 900 380 Q 950 330, 1000 380 T 1100 380 T 1200 380 T 1300 380 Q 1350 330, 1400 380 T 1500 380 T 1600 380 T 1700 380 Q 1750 330, 1800 380 T 1900 380 T 2000 380 T 2100 380" stroke="url(#pinkToBlueGradient)" fill="none" stroke-width="2"></path><path d="M 0 390 Q 50 340, 100 390 T 200 390 T 300 390 T 400 390 Q 450 340, 500 390 T 600 390 T 700 390 T 800 390 Q 850 340, 900 390 T 1000 390 T 1100 390 T 1200 390 Q 1250 340, 1300 390 T 1400 390 T 1500 390 T 1600 390 Q 1650 340, 1700 390 T 1800 390 T 1900 390 T 2000 390" stroke="url(#pinkToBlueGradient)" fill="none" stroke-width="2"></path><path d="M 100 390 Q 150 340, 200 390 T 300 390 T 400 390 T 500 390 Q 550 340, 600 390 T 700 390 T 800 390 T 900 390 Q 950 340, 1000 390 T 1100 390 T 1200 390 T 1300 390 Q 1350 340, 1400 390 T 1500 390 T 1600 390 T 1700 390 Q 1750 340, 1800 390 T 1900 390 T 2000 390 T 2100 390" stroke="url(#pinkToBlueGradient)" fill="none" stroke-width="2"></path><path d="M 0 400 Q 50 350, 100 400 T 200 400 T 300 400 T 400 400 Q 450 350, 500 400 T 600 400 T 700 400 T 800 400 Q 850 350, 900 400 T 1000 400 T 1100 400 T 1200 400 Q 1250 350, 1300 400 T 1400 400 T 1500 400 T 1600 400 Q 1650 350, 1700 400 T 1800 400 T 1900 400 T 2000 400" stroke="url(#pinkToBlueGradient)" fill="none" stroke-width="2"></path><path d="M 100 400 Q 150 350, 200 400 T 300 400 T 400 400 T 500 400 Q 550 350, 600 400 T 700 400 T 800 400 T 900 400 Q 950 350, 1000 400 T 1100 400 T 1200 400 T 1300 400 Q 1350 350, 1400 400 T 1500 400 T 1600 400 T 1700 400 Q 1750 350, 1800 400 T 1900 400 T 2000 400 T 2100 400" stroke="url(#pinkToBlueGradient)" fill="none" stroke-width="2"></path><path d="M 0 410 Q 50 360, 100 410 T 200 410 T 300 410 T 400 410 Q 450 360, 500 410 T 600 410 T 700 410 T 800 410 Q 850 360, 900 410 T 1000 410 T 1100 410 T 1200 410 Q 1250 360, 1300 410 T 1400 410 T 1500 410 T 1600 410 Q 1650 360, 1700 410 T 1800 410 T 1900 410 T 2000 410" stroke="url(#pinkToBlueGradient)" fill="none" stroke-width="2"></path><path d="M 100 410 Q 150 360, 200 410 T 300 410 T 400 410 T 500 410 Q 550 360, 600 410 T 700 410 T 800 410 T 900 410 Q 950 360, 1000 410 T 1100 410 T 1200 410 T 1300 410 Q 1350 360, 1400 410 T 1500 410 T 1600 410 T 1700 410 Q 1750 360, 1800 410 T 1900 410 T 2000 410 T 2100 410" stroke="url(#pinkToBlueGradient)" fill="none" stroke-width="2"></path><path d="M 0 420 Q 50 370, 100 420 T 200 420 T 300 420 T 400 420 Q 450 370, 500 420 T 600 420 T 700 420 T 800 420 Q 850 370, 900 420 T 1000 420 T 1100 420 T 1200 420 Q 1250 370, 1300 420 T 1400 420 T 1500 420 T 1600 420 Q 1650 370, 1700 420 T 1800 420 T 1900 420 T 2000 420" stroke="url(#pinkToBlueGradient)" fill="none" stroke-width="2"></path><path d="M 100 420 Q 150 370, 200 420 T 300 420 T 400 420 T 500 420 Q 550 370, 600 420 T 700 420 T 800 420 T 900 420 Q 950 370, 1000 420 T 1100 420 T 1200 420 T 1300 420 Q 1350 370, 1400 420 T 1500 420 T 1600 420 T 1700 420 Q 1750 370, 1800 420 T 1900 420 T 2000 420 T 2100 420" stroke="url(#pinkToBlueGradient)" fill="none" stroke-width="2"></path><path d="M 0 430 Q 50 380, 100 430 T 200 430 T 300 430 T 400 430 Q 450 380, 500 430 T 600 430 T 700 430 T 800 430 Q 850 380, 900 430 T 1000 430 T 1100 430 T 1200 430 Q 1250 380, 1300 430 T 1400 430 T 1500 430 T 1600 430 Q 1650 380, 1700 430 T 1800 430 T 1900 430 T 2000 430" stroke="url(#pinkToBlueGradient)" fill="none" stroke-width="2"></path><path d="M 100 430 Q 150 380, 200 430 T 300 430 T 400 430 T 500 430 Q 550 380, 600 430 T 700 430 T 800 430 T 900 430 Q 950 380, 1000 430 T 1100 430 T 1200 430 T 1300 430 Q 1350 380, 1400 430 T 1500 430 T 1600 430 T 1700 430 Q 1750 380, 1800 430 T 1900 430 T 2000 430 T 2100 430" stroke="url(#pinkToBlueGradient)" fill="none" stroke-width="2"></path><path d="M 0 440 Q 50 390, 100 440 T 200 440 T 300 440 T 400 440 Q 450 390, 500 440 T 600 440 T 700 440 T 800 440 Q 850 390, 900 440 T 1000 440 T 1100 440 T 1200 440 Q 1250 390, 1300 440 T 1400 440 T 1500 440 T 1600 440 Q 1650 390, 1700 440 T 1800 440 T 1900 440 T 2000 440" stroke="url(#pinkToBlueGradient)" fill="none" stroke-width="2"></path><path d="M 100 440 Q 150 390, 200 440 T 300 440 T 400 440 T 500 440 Q 550 390, 600 440 T 700 440 T 800 440 T 900 440 Q 950 390, 1000 440 T 1100 440 T 1200 440 T 1300 440 Q 1350 390, 1400 440 T 1500 440 T 1600 440 T 1700 440 Q 1750 390, 1800 440 T 1900 440 T 2000 440 T 2100 440" stroke="url(#pinkToBlueGradient)" fill="none" stroke-width="2"></path><path d="M 0 450 Q 50 400, 100 450 T 200 450 T 300 450 T 400 450 Q 450 400, 500 450 T 600 450 T 700 450 T 800 450 Q 850 400, 900 450 T 1000 450 T 1100 450 T 1200 450 Q 1250 400, 1300 450 T 1400 450 T 1500 450 T 1600 450 Q 1650 400, 1700 450 T 1800 450 T 1900 450 T 2000 450" stroke="url(#pinkToBlueGradient)" fill="none" stroke-width="2"></path><path d="M 100 450 Q 150 400, 200 450 T 300 450 T 400 450 T 500 450 Q 550 400, 600 450 T 700 450 T 800 450 T 900 450 Q 950 400, 1000 450 T 1100 450 T 1200 450 T 1300 450 Q 1350 400, 1400 450 T 1500 450 T 1600 450 T 1700 450 Q 1750 400, 1800 450 T 1900 450 T 2000 450 T 2100 450" stroke="url(#pinkToBlueGradient)" fill="none" stroke-width="2"></path><path d="M 0 460 Q 50 410, 100 460 T 200 460 T 300 460 T 400 460 Q 450 410, 500 460 T 600 460 T 700 460 T 800 460 Q 850 410, 900 460 T 1000 460 T 1100 460 T 1200 460 Q 1250 410, 1300 460 T 1400 460 T 1500 460 T 1600 460 Q 1650 410, 1700 460 T 1800 460 T 1900 460 T 2000 460" stroke="url(#pinkToBlueGradient)" fill="none" stroke-width="2"></path><path d="M 100 460 Q 150 410, 200 460 T 300 460 T 400 460 T 500 460 Q 550 410, 600 460 T 700 460 T 800 460 T 900 460 Q 950 410, 1000 460 T 1100 460 T 1200 460 T 1300 460 Q 1350 410, 1400 460 T 1500 460 T 1600 460 T 1700 460 Q 1750 410, 1800 460 T 1900 460 T 2000 460 T 2100 460" stroke="url(#pinkToBlueGradient)" fill="none" stroke-width="2"></path><path d="M 0 470 Q 50 420, 100 470 T 200 470 T 300 470 T 400 470 Q 450 420, 500 470 T 600 470 T 700 470 T 800 470 Q 850 420, 900 470 T 1000 470 T 1100 470 T 1200 470 Q 1250 420, 1300 470 T 1400 470 T 1500 470 T 1600 470 Q 1650 420, 1700 470 T 1800 470 T 1900 470 T 2000 470" stroke="url(#pinkToBlueGradient)" fill="none" stroke-width="2"></path><path d="M 100 470 Q 150 420, 200 470 T 300 470 T 400 470 T 500 470 Q 550 420, 600 470 T 700 470 T 800 470 T 900 470 Q 950 420, 1000 470 T 1100 470 T 1200 470 T 1300 470 Q 1350 420, 1400 470 T 1500 470 T 1600 470 T 1700 470 Q 1750 420, 1800 470 T 1900 470 T 2000 470 T 2100 470" stroke="url(#pinkToBlueGradient)" fill="none" stroke-width="2"></path><path d="M 0 480 Q 50 430, 100 480 T 200 480 T 300 480 T 400 480 Q 450 430, 500 480 T 600 480 T 700 480 T 800 480 Q 850 430, 900 480 T 1000 480 T 1100 480 T 1200 480 Q 1250 430, 1300 480 T 1400 480 T 1500 480 T 1600 480 Q 1650 430, 1700 480 T 1800 480 T 1900 480 T 2000 480" stroke="url(#pinkToBlueGradient)" fill="none" stroke-width="2"></path><path d="M 100 480 Q 150 430, 200 480 T 300 480 T 400 480 T 500 480 Q 550 430, 600 480 T 700 480 T 800 480 T 900 480 Q 950 430, 1000 480 T 1100 480 T 1200 480 T 1300 480 Q 1350 430, 1400 480 T 1500 480 T 1600 480 T 1700 480 Q 1750 430, 1800 480 T 1900 480 T 2000 480 T 2100 480" stroke="url(#pinkToBlueGradient)" fill="none" stroke-width="2"></path><path d="M 0 490 Q 50 440, 100 490 T 200 490 T 300 490 T 400 490 Q 450 440, 500 490 T 600 490 T 700 490 T 800 490 Q 850 440, 900 490 T 1000 490 T 1100 490 T 1200 490 Q 1250 440, 1300 490 T 1400 490 T 1500 490 T 1600 490 Q 1650 440, 1700 490 T 1800 490 T 1900 490 T 2000 490" stroke="url(#pinkToBlueGradient)" fill="none" stroke-width="2"></path><path d="M 100 490 Q 150 440, 200 490 T 300 490 T 400 490 T 500 490 Q 550 440, 600 490 T 700 490 T 800 490 T 900 490 Q 950 440, 1000 490 T 1100 490 T 1200 490 T 1300 490 Q 1350 440, 1400 490 T 1500 490 T 1600 490 T 1700 490 Q 1750 440, 1800 490 T 1900 490 T 2000 490 T 2100 490" stroke="url(#pinkToBlueGradient)" fill="none" stroke-width="2"></path><path d="M 0 500 Q 50 450, 100 500 T 200 500 T 300 500 T 400 500 Q 450 450, 500 500 T 600 500 T 700 500 T 800 500 Q 850 450, 900 500 T 1000 500 T 1100 500 T 1200 500 Q 1250 450, 1300 500 T 1400 500 T 1500 500 T 1600 500 Q 1650 450, 1700 500 T 1800 500 T 1900 500 T 2000 500" stroke="url(#pinkToBlueGradient)" fill="none" stroke-width="2"></path><path d="M 100 500 Q 150 450, 200 500 T 300 500 T 400 500 T 500 500 Q 550 450, 600 500 T 700 500 T 800 500 T 900 500 Q 950 450, 1000 500 T 1100 500 T 1200 500 T 1300 500 Q 1350 450, 1400 500 T 1500 500 T 1600 500 T 1700 500 Q 1750 450, 1800 500 T 1900 500 T 2000 500 T 2100 500" stroke="url(#pinkToBlueGradient)" fill="none" stroke-width="2"></path><path d="M 0 510 Q 50 460, 100 510 T 200 510 T 300 510 T 400 510 Q 450 460, 500 510 T 600 510 T 700 510 T 800 510 Q 850 460, 900 510 T 1000 510 T 1100 510 T 1200 510 Q 1250 460, 1300 510 T 1400 510 T 1500 510 T 1600 510 Q 1650 460, 1700 510 T 1800 510 T 1900 510 T 2000 510" stroke="url(#pinkToBlueGradient)" fill="none" stroke-width="2"></path><path d="M 100 510 Q 150 460, 200 510 T 300 510 T 400 510 T 500 510 Q 550 460, 600 510 T 700 510 T 800 510 T 900 510 Q 950 460, 1000 510 T 1100 510 T 1200 510 T 1300 510 Q 1350 460, 1400 510 T 1500 510 T 1600 510 T 1700 510 Q 1750 460, 1800 510 T 1900 510 T 2000 510 T 2100 510" stroke="url(#pinkToBlueGradient)" fill="none" stroke-width="2"></path><path d="M 0 520 Q 50 470, 100 520 T 200 520 T 300 520 T 400 520 Q 450 470, 500 520 T 600 520 T 700 520 T 800 520 Q 850 470, 900 520 T 1000 520 T 1100 520 T 1200 520 Q 1250 470, 1300 520 T 1400 520 T 1500 520 T 1600 520 Q 1650 470, 1700 520 T 1800 520 T 1900 520 T 2000 520" stroke="url(#pinkToBlueGradient)" fill="none" stroke-width="2"></path><path d="M 100 520 Q 150 470, 200 520 T 300 520 T 400 520 T 500 520 Q 550 470, 600 520 T 700 520 T 800 520 T 900 520 Q 950 470, 1000 520 T 1100 520 T 1200 520 T 1300 520 Q 1350 470, 1400 520 T 1500 520 T 1600 520 T 1700 520 Q 1750 470, 1800 520 T 1900 520 T 2000 520 T 2100 520" stroke="url(#pinkToBlueGradient)" fill="none" stroke-width="2"></path><path d="M 0 530 Q 50 480, 100 530 T 200 530 T 300 530 T 400 530 Q 450 480, 500 530 T 600 530 T 700 530 T 800 530 Q 850 480, 900 530 T 1000 530 T 1100 530 T 1200 530 Q 1250 480, 1300 530 T 1400 530 T 1500 530 T 1600 530 Q 1650 480, 1700 530 T 1800 530 T 1900 530 T 2000 530" stroke="url(#pinkToBlueGradient)" fill="none" stroke-width="2"></path><path d="M 100 530 Q 150 480, 200 530 T 300 530 T 400 530 T 500 530 Q 550 480, 600 530 T 700 530 T 800 530 T 900 530 Q 950 480, 1000 530 T 1100 530 T 1200 530 T 1300 530 Q 1350 480, 1400 530 T 1500 530 T 1600 530 T 1700 530 Q 1750 480, 1800 530 T 1900 530 T 2000 530 T 2100 530" stroke="url(#pinkToBlueGradient)" fill="none" stroke-width="2"></path><path d="M 0 540 Q 50 490, 100 540 T 200 540 T 300 540 T 400 540 Q 450 490, 500 540 T 600 540 T 700 540 T 800 540 Q 850 490, 900 540 T 1000 540 T 1100 540 T 1200 540 Q 1250 490, 1300 540 T 1400 540 T 1500 540 T 1600 540 Q 1650 490, 1700 540 T 1800 540 T 1900 540 T 2000 540" stroke="url(#pinkToBlueGradient)" fill="none" stroke-width="2"></path><path d="M 100 540 Q 150 490, 200 540 T 300 540 T 400 540 T 500 540 Q 550 490, 600 540 T 700 540 T 800 540 T 900 540 Q 950 490, 1000 540 T 1100 540 T 1200 540 T 1300 540 Q 1350 490, 1400 540 T 1500 540 T 1600 540 T 1700 540 Q 1750 490, 1800 540 T 1900 540 T 2000 540 T 2100 540" stroke="url(#pinkToBlueGradient)" fill="none" stroke-width="2"></path><path d="M 0 550 Q 50 500, 100 550 T 200 550 T 300 550 T 400 550 Q 450 500, 500 550 T 600 550 T 700 550 T 800 550 Q 850 500, 900 550 T 1000 550 T 1100 550 T 1200 550 Q 1250 500, 1300 550 T 1400 550 T 1500 550 T 1600 550 Q 1650 500, 1700 550 T 1800 550 T 1900 550 T 2000 550" stroke="url(#pinkToBlueGradient)" fill="none" stroke-width="2"></path><path d="M 100 550 Q 150 500, 200 550 T 300 550 T 400 550 T 500 550 Q 550 500, 600 550 T 700 550 T 800 550 T 900 550 Q 950 500, 1000 550 T 1100 550 T 1200 550 T 1300 550 Q 1350 500, 1400 550 T 1500 550 T 1600 550 T 1700 550 Q 1750 500, 1800 550 T 1900 550 T 2000 550 T 2100 550" stroke="url(#pinkToBlueGradient)" fill="none" stroke-width="2"></path><path d="M 0 560 Q 50 510, 100 560 T 200 560 T 300 560 T 400 560 Q 450 510, 500 560 T 600 560 T 700 560 T 800 560 Q 850 510, 900 560 T 1000 560 T 1100 560 T 1200 560 Q 1250 510, 1300 560 T 1400 560 T 1500 560 T 1600 560 Q 1650 510, 1700 560 T 1800 560 T 1900 560 T 2000 560" stroke="url(#pinkToBlueGradient)" fill="none" stroke-width="2"></path><path d="M 100 560 Q 150 510, 200 560 T 300 560 T 400 560 T 500 560 Q 550 510, 600 560 T 700 560 T 800 560 T 900 560 Q 950 510, 1000 560 T 1100 560 T 1200 560 T 1300 560 Q 1350 510, 1400 560 T 1500 560 T 1600 560 T 1700 560 Q 1750 510, 1800 560 T 1900 560 T 2000 560 T 2100 560" stroke="url(#pinkToBlueGradient)" fill="none" stroke-width="2"></path><path d="M 0 570 Q 50 520, 100 570 T 200 570 T 300 570 T 400 570 Q 450 520, 500 570 T 600 570 T 700 570 T 800 570 Q 850 520, 900 570 T 1000 570 T 1100 570 T 1200 570 Q 1250 520, 1300 570 T 1400 570 T 1500 570 T 1600 570 Q 1650 520, 1700 570 T 1800 570 T 1900 570 T 2000 570" stroke="url(#pinkToBlueGradient)" fill="none" stroke-width="2"></path><path d="M 100 570 Q 150 520, 200 570 T 300 570 T 400 570 T 500 570 Q 550 520, 600 570 T 700 570 T 800 570 T 900 570 Q 950 520, 1000 570 T 1100 570 T 1200 570 T 1300 570 Q 1350 520, 1400 570 T 1500 570 T 1600 570 T 1700 570 Q 1750 520, 1800 570 T 1900 570 T 2000 570 T 2100 570" stroke="url(#pinkToBlueGradient)" fill="none" stroke-width="2"></path><path d="M 0 580 Q 50 530, 100 580 T 200 580 T 300 580 T 400 580 Q 450 530, 500 580 T 600 580 T 700 580 T 800 580 Q 850 530, 900 580 T 1000 580 T 1100 580 T 1200 580 Q 1250 530, 1300 580 T 1400 580 T 1500 580 T 1600 580 Q 1650 530, 1700 580 T 1800 580 T 1900 580 T 2000 580" stroke="url(#pinkToBlueGradient)" fill="none" stroke-width="2"></path><path d="M 100 580 Q 150 530, 200 580 T 300 580 T 400 580 T 500 580 Q 550 530, 600 580 T 700 580 T 800 580 T 900 580 Q 950 530, 1000 580 T 1100 580 T 1200 580 T 1300 580 Q 1350 530, 1400 580 T 1500 580 T 1600 580 T 1700 580 Q 1750 530, 1800 580 T 1900 580 T 2000 580 T 2100 580" stroke="url(#pinkToBlueGradient)" fill="none" stroke-width="2"></path><path d="M 0 590 Q 50 540, 100 590 T 200 590 T 300 590 T 400 590 Q 450 540, 500 590 T 600 590 T 700 590 T 800 590 Q 850 540, 900 590 T 1000 590 T 1100 590 T 1200 590 Q 1250 540, 1300 590 T 1400 590 T 1500 590 T 1600 590 Q 1650 540, 1700 590 T 1800 590 T 1900 590 T 2000 590" stroke="url(#pinkToBlueGradient)" fill="none" stroke-width="2"></path><path d="M 100 590 Q 150 540, 200 590 T 300 590 T 400 590 T 500 590 Q 550 540, 600 590 T 700 590 T 800 590 T 900 590 Q 950 540, 1000 590 T 1100 590 T 1200 590 T 1300 590 Q 1350 540, 1400 590 T 1500 590 T 1600 590 T 1700 590 Q 1750 540, 1800 590 T 1900 590 T 2000 590 T 2100 590" stroke="url(#pinkToBlueGradient)" fill="none" stroke-width="2"></path><path d="M 0 600 Q 50 550, 100 600 T 200 600 T 300 600 T 400 600 Q 450 550, 500 600 T 600 600 T 700 600 T 800 600 Q 850 550, 900 600 T 1000 600 T 1100 600 T 1200 600 Q 1250 550, 1300 600 T 1400 600 T 1500 600 T 1600 600 Q 1650 550, 1700 600 T 1800 600 T 1900 600 T 2000 600" stroke="url(#pinkToBlueGradient)" fill="none" stroke-width="2"></path><path d="M 100 600 Q 150 550, 200 600 T 300 600 T 400 600 T 500 600 Q 550 550, 600 600 T 700 600 T 800 600 T 900 600 Q 950 550, 1000 600 T 1100 600 T 1200 600 T 1300 600 Q 1350 550, 1400 600 T 1500 600 T 1600 600 T 1700 600 Q 1750 550, 1800 600 T 1900 600 T 2000 600 T 2100 600" stroke="url(#pinkToBlueGradient)" fill="none" stroke-width="2"></path><path d="M 0 610 Q 50 560, 100 610 T 200 610 T 300 610 T 400 610 Q 450 560, 500 610 T 600 610 T 700 610 T 800 610 Q 850 560, 900 610 T 1000 610 T 1100 610 T 1200 610 Q 1250 560, 1300 610 T 1400 610 T 1500 610 T 1600 610 Q 1650 560, 1700 610 T 1800 610 T 1900 610 T 2000 610" stroke="url(#pinkToBlueGradient)" fill="none" stroke-width="2"></path><path d="M 100 610 Q 150 560, 200 610 T 300 610 T 400 610 T 500 610 Q 550 560, 600 610 T 700 610 T 800 610 T 900 610 Q 950 560, 1000 610 T 1100 610 T 1200 610 T 1300 610 Q 1350 560, 1400 610 T 1500 610 T 1600 610 T 1700 610 Q 1750 560, 1800 610 T 1900 610 T 2000 610 T 2100 610" stroke="url(#pinkToBlueGradient)" fill="none" stroke-width="2"></path><path d="M 0 620 Q 50 570, 100 620 T 200 620 T 300 620 T 400 620 Q 450 570, 500 620 T 600 620 T 700 620 T 800 620 Q 850 570, 900 620 T 1000 620 T 1100 620 T 1200 620 Q 1250 570, 1300 620 T 1400 620 T 1500 620 T 1600 620 Q 1650 570, 1700 620 T 1800 620 T 1900 620 T 2000 620" stroke="url(#pinkToBlueGradient)" fill="none" stroke-width="2"></path><path d="M 100 620 Q 150 570, 200 620 T 300 620 T 400 620 T 500 620 Q 550 570, 600 620 T 700 620 T 800 620 T 900 620 Q 950 570, 1000 620 T 1100 620 T 1200 620 T 1300 620 Q 1350 570, 1400 620 T 1500 620 T 1600 620 T 1700 620 Q 1750 570, 1800 620 T 1900 620 T 2000 620 T 2100 620" stroke="url(#pinkToBlueGradient)" fill="none" stroke-width="2"></path><path d="M 0 630 Q 50 580, 100 630 T 200 630 T 300 630 T 400 630 Q 450 580, 500 630 T 600 630 T 700 630 T 800 630 Q 850 580, 900 630 T 1000 630 T 1100 630 T 1200 630 Q 1250 580, 1300 630 T 1400 630 T 1500 630 T 1600 630 Q 1650 580, 1700 630 T 1800 630 T 1900 630 T 2000 630" stroke="url(#pinkToBlueGradient)" fill="none" stroke-width="2"></path><path d="M 100 630 Q 150 580, 200 630 T 300 630 T 400 630 T 500 630 Q 550 580, 600 630 T 700 630 T 800 630 T 900 630 Q 950 580, 1000 630 T 1100 630 T 1200 630 T 1300 630 Q 1350 580, 1400 630 T 1500 630 T 1600 630 T 1700 630 Q 1750 580, 1800 630 T 1900 630 T 2000 630 T 2100 630" stroke="url(#pinkToBlueGradient)" fill="none" stroke-width="2"></path><path d="M 0 640 Q 50 590, 100 640 T 200 640 T 300 640 T 400 640 Q 450 590, 500 640 T 600 640 T 700 640 T 800 640 Q 850 590, 900 640 T 1000 640 T 1100 640 T 1200 640 Q 1250 590, 1300 640 T 1400 640 T 1500 640 T 1600 640 Q 1650 590, 1700 640 T 1800 640 T 1900 640 T 2000 640" stroke="url(#pinkToBlueGradient)" fill="none" stroke-width="2"></path><path d="M 100 640 Q 150 590, 200 640 T 300 640 T 400 640 T 500 640 Q 550 590, 600 640 T 700 640 T 800 640 T 900 640 Q 950 590, 1000 640 T 1100 640 T 1200 640 T 1300 640 Q 1350 590, 1400 640 T 1500 640 T 1600 640 T 1700 640 Q 1750 590, 1800 640 T 1900 640 T 2000 640 T 2100 640" stroke="url(#pinkToBlueGradient)" fill="none" stroke-width="2"></path><path d="M 0 650 Q 50 600, 100 650 T 200 650 T 300 650 T 400 650 Q 450 600, 500 650 T 600 650 T 700 650 T 800 650 Q 850 600, 900 650 T 1000 650 T 1100 650 T 1200 650 Q 1250 600, 1300 650 T 1400 650 T 1500 650 T 1600 650 Q 1650 600, 1700 650 T 1800 650 T 1900 650 T 2000 650" stroke="url(#pinkToBlueGradient)" fill="none" stroke-width="2"></path><path d="M 100 650 Q 150 600, 200 650 T 300 650 T 400 650 T 500 650 Q 550 600, 600 650 T 700 650 T 800 650 T 900 650 Q 950 600, 1000 650 T 1100 650 T 1200 650 T 1300 650 Q 1350 600, 1400 650 T 1500 650 T 1600 650 T 1700 650 Q 1750 600, 1800 650 T 1900 650 T 2000 650 T 2100 650" stroke="url(#pinkToBlueGradient)" fill="none" stroke-width="2"></path><path d="M 0 660 Q 50 610, 100 660 T 200 660 T 300 660 T 400 660 Q 450 610, 500 660 T 600 660 T 700 660 T 800 660 Q 850 610, 900 660 T 1000 660 T 1100 660 T 1200 660 Q 1250 610, 1300 660 T 1400 660 T 1500 660 T 1600 660 Q 1650 610, 1700 660 T 1800 660 T 1900 660 T 2000 660" stroke="url(#pinkToBlueGradient)" fill="none" stroke-width="2"></path><path d="M 100 660 Q 150 610, 200 660 T 300 660 T 400 660 T 500 660 Q 550 610, 600 660 T 700 660 T 800 660 T 900 660 Q 950 610, 1000 660 T 1100 660 T 1200 660 T 1300 660 Q 1350 610, 1400 660 T 1500 660 T 1600 660 T 1700 660 Q 1750 610, 1800 660 T 1900 660 T 2000 660 T 2100 660" stroke="url(#pinkToBlueGradient)" fill="none" stroke-width="2"></path><path d="M 0 670 Q 50 620, 100 670 T 200 670 T 300 670 T 400 670 Q 450 620, 500 670 T 600 670 T 700 670 T 800 670 Q 850 620, 900 670 T 1000 670 T 1100 670 T 1200 670 Q 1250 620, 1300 670 T 1400 670 T 1500 670 T 1600 670 Q 1650 620, 1700 670 T 1800 670 T 1900 670 T 2000 670" stroke="url(#pinkToBlueGradient)" fill="none" stroke-width="2"></path><path d="M 100 670 Q 150 620, 200 670 T 300 670 T 400 670 T 500 670 Q 550 620, 600 670 T 700 670 T 800 670 T 900 670 Q 950 620, 1000 670 T 1100 670 T 1200 670 T 1300 670 Q 1350 620, 1400 670 T 1500 670 T 1600 670 T 1700 670 Q 1750 620, 1800 670 T 1900 670 T 2000 670 T 2100 670" stroke="url(#pinkToBlueGradient)" fill="none" stroke-width="2"></path><path d="M 0 680 Q 50 630, 100 680 T 200 680 T 300 680 T 400 680 Q 450 630, 500 680 T 600 680 T 700 680 T 800 680 Q 850 630, 900 680 T 1000 680 T 1100 680 T 1200 680 Q 1250 630, 1300 680 T 1400 680 T 1500 680 T 1600 680 Q 1650 630, 1700 680 T 1800 680 T 1900 680 T 2000 680" stroke="url(#pinkToBlueGradient)" fill="none" stroke-width="2"></path><path d="M 100 680 Q 150 630, 200 680 T 300 680 T 400 680 T 500 680 Q 550 630, 600 680 T 700 680 T 800 680 T 900 680 Q 950 630, 1000 680 T 1100 680 T 1200 680 T 1300 680 Q 1350 630, 1400 680 T 1500 680 T 1600 680 T 1700 680 Q 1750 630, 1800 680 T 1900 680 T 2000 680 T 2100 680" stroke="url(#pinkToBlueGradient)" fill="none" stroke-width="2"></path><path d="M 0 690 Q 50 640, 100 690 T 200 690 T 300 690 T 400 690 Q 450 640, 500 690 T 600 690 T 700 690 T 800 690 Q 850 640, 900 690 T 1000 690 T 1100 690 T 1200 690 Q 1250 640, 1300 690 T 1400 690 T 1500 690 T 1600 690 Q 1650 640, 1700 690 T 1800 690 T 1900 690 T 2000 690" stroke="url(#pinkToBlueGradient)" fill="none" stroke-width="2"></path><path d="M 100 690 Q 150 640, 200 690 T 300 690 T 400 690 T 500 690 Q 550 640, 600 690 T 700 690 T 800 690 T 900 690 Q 950 640, 1000 690 T 1100 690 T 1200 690 T 1300 690 Q 1350 640, 1400 690 T 1500 690 T 1600 690 T 1700 690 Q 1750 640, 1800 690 T 1900 690 T 2000 690 T 2100 690" stroke="url(#pinkToBlueGradient)" fill="none" stroke-width="2"></path><path d="M 0 700 Q 50 650, 100 700 T 200 700 T 300 700 T 400 700 Q 450 650, 500 700 T 600 700 T 700 700 T 800 700 Q 850 650, 900 700 T 1000 700 T 1100 700 T 1200 700 Q 1250 650, 1300 700 T 1400 700 T 1500 700 T 1600 700 Q 1650 650, 1700 700 T 1800 700 T 1900 700 T 2000 700" stroke="url(#pinkToBlueGradient)" fill="none" stroke-width="2"></path><path d="M 100 700 Q 150 650, 200 700 T 300 700 T 400 700 T 500 700 Q 550 650, 600 700 T 700 700 T 800 700 T 900 700 Q 950 650, 1000 700 T 1100 700 T 1200 700 T 1300 700 Q 1350 650, 1400 700 T 1500 700 T 1600 700 T 1700 700 Q 1750 650, 1800 700 T 1900 700 T 2000 700 T 2100 700" stroke="url(#pinkToBlueGradient)" fill="none" stroke-width="2"></path><path d="M 0 710 Q 50 660, 100 710 T 200 710 T 300 710 T 400 710 Q 450 660, 500 710 T 600 710 T 700 710 T 800 710 Q 850 660, 900 710 T 1000 710 T 1100 710 T 1200 710 Q 1250 660, 1300 710 T 1400 710 T 1500 710 T 1600 710 Q 1650 660, 1700 710 T 1800 710 T 1900 710 T 2000 710" stroke="url(#pinkToBlueGradient)" fill="none" stroke-width="2"></path><path d="M 100 710 Q 150 660, 200 710 T 300 710 T 400 710 T 500 710 Q 550 660, 600 710 T 700 710 T 800 710 T 900 710 Q 950 660, 1000 710 T 1100 710 T 1200 710 T 1300 710 Q 1350 660, 1400 710 T 1500 710 T 1600 710 T 1700 710 Q 1750 660, 1800 710 T 1900 710 T 2000 710 T 2100 710" stroke="url(#pinkToBlueGradient)" fill="none" stroke-width="2"></path><path d="M 0 720 Q 50 670, 100 720 T 200 720 T 300 720 T 400 720 Q 450 670, 500 720 T 600 720 T 700 720 T 800 720 Q 850 670, 900 720 T 1000 720 T 1100 720 T 1200 720 Q 1250 670, 1300 720 T 1400 720 T 1500 720 T 1600 720 Q 1650 670, 1700 720 T 1800 720 T 1900 720 T 2000 720" stroke="url(#pinkToBlueGradient)" fill="none" stroke-width="2"></path><path d="M 100 720 Q 150 670, 200 720 T 300 720 T 400 720 T 500 720 Q 550 670, 600 720 T 700 720 T 800 720 T 900 720 Q 950 670, 1000 720 T 1100 720 T 1200 720 T 1300 720 Q 1350 670, 1400 720 T 1500 720 T 1600 720 T 1700 720 Q 1750 670, 1800 720 T 1900 720 T 2000 720 T 2100 720" stroke="url(#pinkToBlueGradient)" fill="none" stroke-width="2"></path><path d="M 0 730 Q 50 680, 100 730 T 200 730 T 300 730 T 400 730 Q 450 680, 500 730 T 600 730 T 700 730 T 800 730 Q 850 680, 900 730 T 1000 730 T 1100 730 T 1200 730 Q 1250 680, 1300 730 T 1400 730 T 1500 730 T 1600 730 Q 1650 680, 1700 730 T 1800 730 T 1900 730 T 2000 730" stroke="url(#pinkToBlueGradient)" fill="none" stroke-width="2"></path><path d="M 100 730 Q 150 680, 200 730 T 300 730 T 400 730 T 500 730 Q 550 680, 600 730 T 700 730 T 800 730 T 900 730 Q 950 680, 1000 730 T 1100 730 T 1200 730 T 1300 730 Q 1350 680, 1400 730 T 1500 730 T 1600 730 T 1700 730 Q 1750 680, 1800 730 T 1900 730 T 2000 730 T 2100 730" stroke="url(#pinkToBlueGradient)" fill="none" stroke-width="2"></path><path d="M 0 740 Q 50 690, 100 740 T 200 740 T 300 740 T 400 740 Q 450 690, 500 740 T 600 740 T 700 740 T 800 740 Q 850 690, 900 740 T 1000 740 T 1100 740 T 1200 740 Q 1250 690, 1300 740 T 1400 740 T 1500 740 T 1600 740 Q 1650 690, 1700 740 T 1800 740 T 1900 740 T 2000 740" stroke="url(#pinkToBlueGradient)" fill="none" stroke-width="2"></path><path d="M 100 740 Q 150 690, 200 740 T 300 740 T 400 740 T 500 740 Q 550 690, 600 740 T 700 740 T 800 740 T 900 740 Q 950 690, 1000 740 T 1100 740 T 1200 740 T 1300 740 Q 1350 690, 1400 740 T 1500 740 T 1600 740 T 1700 740 Q 1750 690, 1800 740 T 1900 740 T 2000 740 T 2100 740" stroke="url(#pinkToBlueGradient)" fill="none" stroke-width="2"></path><path d="M 0 750 Q 50 700, 100 750 T 200 750 T 300 750 T 400 750 Q 450 700, 500 750 T 600 750 T 700 750 T 800 750 Q 850 700, 900 750 T 1000 750 T 1100 750 T 1200 750 Q 1250 700, 1300 750 T 1400 750 T 1500 750 T 1600 750 Q 1650 700, 1700 750 T 1800 750 T 1900 750 T 2000 750" stroke="url(#pinkToBlueGradient)" fill="none" stroke-width="2"></path><path d="M 100 750 Q 150 700, 200 750 T 300 750 T 400 750 T 500 750 Q 550 700, 600 750 T 700 750 T 800 750 T 900 750 Q 950 700, 1000 750 T 1100 750 T 1200 750 T 1300 750 Q 1350 700, 1400 750 T 1500 750 T 1600 750 T 1700 750 Q 1750 700, 1800 750 T 1900 750 T 2000 750 T 2100 750" stroke="url(#pinkToBlueGradient)" fill="none" stroke-width="2"></path><path d="M 0 760 Q 50 710, 100 760 T 200 760 T 300 760 T 400 760 Q 450 710, 500 760 T 600 760 T 700 760 T 800 760 Q 850 710, 900 760 T 1000 760 T 1100 760 T 1200 760 Q 1250 710, 1300 760 T 1400 760 T 1500 760 T 1600 760 Q 1650 710, 1700 760 T 1800 760 T 1900 760 T 2000 760" stroke="url(#pinkToBlueGradient)" fill="none" stroke-width="2"></path><path d="M 100 760 Q 150 710, 200 760 T 300 760 T 400 760 T 500 760 Q 550 710, 600 760 T 700 760 T 800 760 T 900 760 Q 950 710, 1000 760 T 1100 760 T 1200 760 T 1300 760 Q 1350 710, 1400 760 T 1500 760 T 1600 760 T 1700 760 Q 1750 710, 1800 760 T 1900 760 T 2000 760 T 2100 760" stroke="url(#pinkToBlueGradient)" fill="none" stroke-width="2"></path><path d="M 0 770 Q 50 720, 100 770 T 200 770 T 300 770 T 400 770 Q 450 720, 500 770 T 600 770 T 700 770 T 800 770 Q 850 720, 900 770 T 1000 770 T 1100 770 T 1200 770 Q 1250 720, 1300 770 T 1400 770 T 1500 770 T 1600 770 Q 1650 720, 1700 770 T 1800 770 T 1900 770 T 2000 770" stroke="url(#pinkToBlueGradient)" fill="none" stroke-width="2"></path><path d="M 100 770 Q 150 720, 200 770 T 300 770 T 400 770 T 500 770 Q 550 720, 600 770 T 700 770 T 800 770 T 900 770 Q 950 720, 1000 770 T 1100 770 T 1200 770 T 1300 770 Q 1350 720, 1400 770 T 1500 770 T 1600 770 T 1700 770 Q 1750 720, 1800 770 T 1900 770 T 2000 770 T 2100 770" stroke="url(#pinkToBlueGradient)" fill="none" stroke-width="2"></path><path d="M 0 780 Q 50 730, 100 780 T 200 780 T 300 780 T 400 780 Q 450 730, 500 780 T 600 780 T 700 780 T 800 780 Q 850 730, 900 780 T 1000 780 T 1100 780 T 1200 780 Q 1250 730, 1300 780 T 1400 780 T 1500 780 T 1600 780 Q 1650 730, 1700 780 T 1800 780 T 1900 780 T 2000 780" stroke="url(#pinkToBlueGradient)" fill="none" stroke-width="2"></path><path d="M 100 780 Q 150 730, 200 780 T 300 780 T 400 780 T 500 780 Q 550 730, 600 780 T 700 780 T 800 780 T 900 780 Q 950 730, 1000 780 T 1100 780 T 1200 780 T 1300 780 Q 1350 730, 1400 780 T 1500 780 T 1600 780 T 1700 780 Q 1750 730, 1800 780 T 1900 780 T 2000 780 T 2100 780" stroke="url(#pinkToBlueGradient)" fill="none" stroke-width="2"></path><path d="M 0 790 Q 50 740, 100 790 T 200 790 T 300 790 T 400 790 Q 450 740, 500 790 T 600 790 T 700 790 T 800 790 Q 850 740, 900 790 T 1000 790 T 1100 790 T 1200 790 Q 1250 740, 1300 790 T 1400 790 T 1500 790 T 1600 790 Q 1650 740, 1700 790 T 1800 790 T 1900 790 T 2000 790" stroke="url(#pinkToBlueGradient)" fill="none" stroke-width="2"></path><path d="M 100 790 Q 150 740, 200 790 T 300 790 T 400 790 T 500 790 Q 550 740, 600 790 T 700 790 T 800 790 T 900 790 Q 950 740, 1000 790 T 1100 790 T 1200 790 T 1300 790 Q 1350 740, 1400 790 T 1500 790 T 1600 790 T 1700 790 Q 1750 740, 1800 790 T 1900 790 T 2000 790 T 2100 790" stroke="url(#pinkToBlueGradient)" fill="none" stroke-width="2"></path><path d="M 0 800 Q 50 750, 100 800 T 200 800 T 300 800 T 400 800 Q 450 750, 500 800 T 600 800 T 700 800 T 800 800 Q 850 750, 900 800 T 1000 800 T 1100 800 T 1200 800 Q 1250 750, 1300 800 T 1400 800 T 1500 800 T 1600 800 Q 1650 750, 1700 800 T 1800 800 T 1900 800 T 2000 800" stroke="url(#pinkToBlueGradient)" fill="none" stroke-width="2"></path><path d="M 100 800 Q 150 750, 200 800 T 300 800 T 400 800 T 500 800 Q 550 750, 600 800 T 700 800 T 800 800 T 900 800 Q 950 750, 1000 800 T 1100 800 T 1200 800 T 1300 800 Q 1350 750, 1400 800 T 1500 800 T 1600 800 T 1700 800 Q 1750 750, 1800 800 T 1900 800 T 2000 800 T 2100 800" stroke="url(#pinkToBlueGradient)" fill="none" stroke-width="2"></path><path d="M 0 810 Q 50 760, 100 810 T 200 810 T 300 810 T 400 810 Q 450 760, 500 810 T 600 810 T 700 810 T 800 810 Q 850 760, 900 810 T 1000 810 T 1100 810 T 1200 810 Q 1250 760, 1300 810 T 1400 810 T 1500 810 T 1600 810 Q 1650 760, 1700 810 T 1800 810 T 1900 810 T 2000 810" stroke="url(#pinkToBlueGradient)" fill="none" stroke-width="2"></path><path d="M 100 810 Q 150 760, 200 810 T 300 810 T 400 810 T 500 810 Q 550 760, 600 810 T 700 810 T 800 810 T 900 810 Q 950 760, 1000 810 T 1100 810 T 1200 810 T 1300 810 Q 1350 760, 1400 810 T 1500 810 T 1600 810 T 1700 810 Q 1750 760, 1800 810 T 1900 810 T 2000 810 T 2100 810" stroke="url(#pinkToBlueGradient)" fill="none" stroke-width="2"></path><path d="M 0 820 Q 50 770, 100 820 T 200 820 T 300 820 T 400 820 Q 450 770, 500 820 T 600 820 T 700 820 T 800 820 Q 850 770, 900 820 T 1000 820 T 1100 820 T 1200 820 Q 1250 770, 1300 820 T 1400 820 T 1500 820 T 1600 820 Q 1650 770, 1700 820 T 1800 820 T 1900 820 T 2000 820" stroke="url(#pinkToBlueGradient)" fill="none" stroke-width="2"></path><path d="M 100 820 Q 150 770, 200 820 T 300 820 T 400 820 T 500 820 Q 550 770, 600 820 T 700 820 T 800 820 T 900 820 Q 950 770, 1000 820 T 1100 820 T 1200 820 T 1300 820 Q 1350 770, 1400 820 T 1500 820 T 1600 820 T 1700 820 Q 1750 770, 1800 820 T 1900 820 T 2000 820 T 2100 820" stroke="url(#pinkToBlueGradient)" fill="none" stroke-width="2"></path><path d="M 0 830 Q 50 780, 100 830 T 200 830 T 300 830 T 400 830 Q 450 780, 500 830 T 600 830 T 700 830 T 800 830 Q 850 780, 900 830 T 1000 830 T 1100 830 T 1200 830 Q 1250 780, 1300 830 T 1400 830 T 1500 830 T 1600 830 Q 1650 780, 1700 830 T 1800 830 T 1900 830 T 2000 830" stroke="url(#pinkToBlueGradient)" fill="none" stroke-width="2"></path><path d="M 100 830 Q 150 780, 200 830 T 300 830 T 400 830 T 500 830 Q 550 780, 600 830 T 700 830 T 800 830 T 900 830 Q 950 780, 1000 830 T 1100 830 T 1200 830 T 1300 830 Q 1350 780, 1400 830 T 1500 830 T 1600 830 T 1700 830 Q 1750 780, 1800 830 T 1900 830 T 2000 830 T 2100 830" stroke="url(#pinkToBlueGradient)" fill="none" stroke-width="2"></path><path d="M 0 840 Q 50 790, 100 840 T 200 840 T 300 840 T 400 840 Q 450 790, 500 840 T 600 840 T 700 840 T 800 840 Q 850 790, 900 840 T 1000 840 T 1100 840 T 1200 840 Q 1250 790, 1300 840 T 1400 840 T 1500 840 T 1600 840 Q 1650 790, 1700 840 T 1800 840 T 1900 840 T 2000 840" stroke="url(#pinkToBlueGradient)" fill="none" stroke-width="2"></path><path d="M 100 840 Q 150 790, 200 840 T 300 840 T 400 840 T 500 840 Q 550 790, 600 840 T 700 840 T 800 840 T 900 840 Q 950 790, 1000 840 T 1100 840 T 1200 840 T 1300 840 Q 1350 790, 1400 840 T 1500 840 T 1600 840 T 1700 840 Q 1750 790, 1800 840 T 1900 840 T 2000 840 T 2100 840" stroke="url(#pinkToBlueGradient)" fill="none" stroke-width="2"></path><path d="M 0 850 Q 50 800, 100 850 T 200 850 T 300 850 T 400 850 Q 450 800, 500 850 T 600 850 T 700 850 T 800 850 Q 850 800, 900 850 T 1000 850 T 1100 850 T 1200 850 Q 1250 800, 1300 850 T 1400 850 T 1500 850 T 1600 850 Q 1650 800, 1700 850 T 1800 850 T 1900 850 T 2000 850" stroke="url(#pinkToBlueGradient)" fill="none" stroke-width="2"></path><path d="M 100 850 Q 150 800, 200 850 T 300 850 T 400 850 T 500 850 Q 550 800, 600 850 T 700 850 T 800 850 T 900 850 Q 950 800, 1000 850 T 1100 850 T 1200 850 T 1300 850 Q 1350 800, 1400 850 T 1500 850 T 1600 850 T 1700 850 Q 1750 800, 1800 850 T 1900 850 T 2000 850 T 2100 850" stroke="url(#pinkToBlueGradient)" fill="none" stroke-width="2"></path><path d="M 0 860 Q 50 810, 100 860 T 200 860 T 300 860 T 400 860 Q 450 810, 500 860 T 600 860 T 700 860 T 800 860 Q 850 810, 900 860 T 1000 860 T 1100 860 T 1200 860 Q 1250 810, 1300 860 T 1400 860 T 1500 860 T 1600 860 Q 1650 810, 1700 860 T 1800 860 T 1900 860 T 2000 860" stroke="url(#pinkToBlueGradient)" fill="none" stroke-width="2"></path><path d="M 100 860 Q 150 810, 200 860 T 300 860 T 400 860 T 500 860 Q 550 810, 600 860 T 700 860 T 800 860 T 900 860 Q 950 810, 1000 860 T 1100 860 T 1200 860 T 1300 860 Q 1350 810, 1400 860 T 1500 860 T 1600 860 T 1700 860 Q 1750 810, 1800 860 T 1900 860 T 2000 860 T 2100 860" stroke="url(#pinkToBlueGradient)" fill="none" stroke-width="2"></path><path d="M 0 870 Q 50 820, 100 870 T 200 870 T 300 870 T 400 870 Q 450 820, 500 870 T 600 870 T 700 870 T 800 870 Q 850 820, 900 870 T 1000 870 T 1100 870 T 1200 870 Q 1250 820, 1300 870 T 1400 870 T 1500 870 T 1600 870 Q 1650 820, 1700 870 T 1800 870 T 1900 870 T 2000 870" stroke="url(#pinkToBlueGradient)" fill="none" stroke-width="2"></path><path d="M 100 870 Q 150 820, 200 870 T 300 870 T 400 870 T 500 870 Q 550 820, 600 870 T 700 870 T 800 870 T 900 870 Q 950 820, 1000 870 T 1100 870 T 1200 870 T 1300 870 Q 1350 820, 1400 870 T 1500 870 T 1600 870 T 1700 870 Q 1750 820, 1800 870 T 1900 870 T 2000 870 T 2100 870" stroke="url(#pinkToBlueGradient)" fill="none" stroke-width="2"></path><path d="M 0 880 Q 50 830, 100 880 T 200 880 T 300 880 T 400 880 Q 450 830, 500 880 T 600 880 T 700 880 T 800 880 Q 850 830, 900 880 T 1000 880 T 1100 880 T 1200 880 Q 1250 830, 1300 880 T 1400 880 T 1500 880 T 1600 880 Q 1650 830, 1700 880 T 1800 880 T 1900 880 T 2000 880" stroke="url(#pinkToBlueGradient)" fill="none" stroke-width="2"></path><path d="M 100 880 Q 150 830, 200 880 T 300 880 T 400 880 T 500 880 Q 550 830, 600 880 T 700 880 T 800 880 T 900 880 Q 950 830, 1000 880 T 1100 880 T 1200 880 T 1300 880 Q 1350 830, 1400 880 T 1500 880 T 1600 880 T 1700 880 Q 1750 830, 1800 880 T 1900 880 T 2000 880 T 2100 880" stroke="url(#pinkToBlueGradient)" fill="none" stroke-width="2"></path><path d="M 0 890 Q 50 840, 100 890 T 200 890 T 300 890 T 400 890 Q 450 840, 500 890 T 600 890 T 700 890 T 800 890 Q 850 840, 900 890 T 1000 890 T 1100 890 T 1200 890 Q 1250 840, 1300 890 T 1400 890 T 1500 890 T 1600 890 Q 1650 840, 1700 890 T 1800 890 T 1900 890 T 2000 890" stroke="url(#pinkToBlueGradient)" fill="none" stroke-width="2"></path><path d="M 100 890 Q 150 840, 200 890 T 300 890 T 400 890 T 500 890 Q 550 840, 600 890 T 700 890 T 800 890 T 900 890 Q 950 840, 1000 890 T 1100 890 T 1200 890 T 1300 890 Q 1350 840, 1400 890 T 1500 890 T 1600 890 T 1700 890 Q 1750 840, 1800 890 T 1900 890 T 2000 890 T 2100 890" stroke="url(#pinkToBlueGradient)" fill="none" stroke-width="2"></path><path d="M 0 900 Q 50 850, 100 900 T 200 900 T 300 900 T 400 900 Q 450 850, 500 900 T 600 900 T 700 900 T 800 900 Q 850 850, 900 900 T 1000 900 T 1100 900 T 1200 900 Q 1250 850, 1300 900 T 1400 900 T 1500 900 T 1600 900 Q 1650 850, 1700 900 T 1800 900 T 1900 900 T 2000 900" stroke="url(#pinkToBlueGradient)" fill="none" stroke-width="2"></path><path d="M 100 900 Q 150 850, 200 900 T 300 900 T 400 900 T 500 900 Q 550 850, 600 900 T 700 900 T 800 900 T 900 900 Q 950 850, 1000 900 T 1100 900 T 1200 900 T 1300 900 Q 1350 850, 1400 900 T 1500 900 T 1600 900 T 1700 900 Q 1750 850, 1800 900 T 1900 900 T 2000 900 T 2100 900" stroke="url(#pinkToBlueGradient)" fill="none" stroke-width="2"></path><path d="M 0 910 Q 50 860, 100 910 T 200 910 T 300 910 T 400 910 Q 450 860, 500 910 T 600 910 T 700 910 T 800 910 Q 850 860, 900 910 T 1000 910 T 1100 910 T 1200 910 Q 1250 860, 1300 910 T 1400 910 T 1500 910 T 1600 910 Q 1650 860, 1700 910 T 1800 910 T 1900 910 T 2000 910" stroke="url(#pinkToBlueGradient)" fill="none" stroke-width="2"></path><path d="M 100 910 Q 150 860, 200 910 T 300 910 T 400 910 T 500 910 Q 550 860, 600 910 T 700 910 T 800 910 T 900 910 Q 950 860, 1000 910 T 1100 910 T 1200 910 T 1300 910 Q 1350 860, 1400 910 T 1500 910 T 1600 910 T 1700 910 Q 1750 860, 1800 910 T 1900 910 T 2000 910 T 2100 910" stroke="url(#pinkToBlueGradient)" fill="none" stroke-width="2"></path><path d="M 0 920 Q 50 870, 100 920 T 200 920 T 300 920 T 400 920 Q 450 870, 500 920 T 600 920 T 700 920 T 800 920 Q 850 870, 900 920 T 1000 920 T 1100 920 T 1200 920 Q 1250 870, 1300 920 T 1400 920 T 1500 920 T 1600 920 Q 1650 870, 1700 920 T 1800 920 T 1900 920 T 2000 920" stroke="url(#pinkToBlueGradient)" fill="none" stroke-width="2"></path><path d="M 100 920 Q 150 870, 200 920 T 300 920 T 400 920 T 500 920 Q 550 870, 600 920 T 700 920 T 800 920 T 900 920 Q 950 870, 1000 920 T 1100 920 T 1200 920 T 1300 920 Q 1350 870, 1400 920 T 1500 920 T 1600 920 T 1700 920 Q 1750 870, 1800 920 T 1900 920 T 2000 920 T 2100 920" stroke="url(#pinkToBlueGradient)" fill="none" stroke-width="2"></path><path d="M 0 930 Q 50 880, 100 930 T 200 930 T 300 930 T 400 930 Q 450 880, 500 930 T 600 930 T 700 930 T 800 930 Q 850 880, 900 930 T 1000 930 T 1100 930 T 1200 930 Q 1250 880, 1300 930 T 1400 930 T 1500 930 T 1600 930 Q 1650 880, 1700 930 T 1800 930 T 1900 930 T 2000 930" stroke="url(#pinkToBlueGradient)" fill="none" stroke-width="2"></path><path d="M 100 930 Q 150 880, 200 930 T 300 930 T 400 930 T 500 930 Q 550 880, 600 930 T 700 930 T 800 930 T 900 930 Q 950 880, 1000 930 T 1100 930 T 1200 930 T 1300 930 Q 1350 880, 1400 930 T 1500 930 T 1600 930 T 1700 930 Q 1750 880, 1800 930 T 1900 930 T 2000 930 T 2100 930" stroke="url(#pinkToBlueGradient)" fill="none" stroke-width="2"></path><path d="M 0 940 Q 50 890, 100 940 T 200 940 T 300 940 T 400 940 Q 450 890, 500 940 T 600 940 T 700 940 T 800 940 Q 850 890, 900 940 T 1000 940 T 1100 940 T 1200 940 Q 1250 890, 1300 940 T 1400 940 T 1500 940 T 1600 940 Q 1650 890, 1700 940 T 1800 940 T 1900 940 T 2000 940" stroke="url(#pinkToBlueGradient)" fill="none" stroke-width="2"></path><path d="M 100 940 Q 150 890, 200 940 T 300 940 T 400 940 T 500 940 Q 550 890, 600 940 T 700 940 T 800 940 T 900 940 Q 950 890, 1000 940 T 1100 940 T 1200 940 T 1300 940 Q 1350 890, 1400 940 T 1500 940 T 1600 940 T 1700 940 Q 1750 890, 1800 940 T 1900 940 T 2000 940 T 2100 940" stroke="url(#pinkToBlueGradient)" fill="none" stroke-width="2"></path><path d="M 0 950 Q 50 900, 100 950 T 200 950 T 300 950 T 400 950 Q 450 900, 500 950 T 600 950 T 700 950 T 800 950 Q 850 900, 900 950 T 1000 950 T 1100 950 T 1200 950 Q 1250 900, 1300 950 T 1400 950 T 1500 950 T 1600 950 Q 1650 900, 1700 950 T 1800 950 T 1900 950 T 2000 950" stroke="url(#pinkToBlueGradient)" fill="none" stroke-width="2"></path><path d="M 100 950 Q 150 900, 200 950 T 300 950 T 400 950 T 500 950 Q 550 900, 600 950 T 700 950 T 800 950 T 900 950 Q 950 900, 1000 950 T 1100 950 T 1200 950 T 1300 950 Q 1350 900, 1400 950 T 1500 950 T 1600 950 T 1700 950 Q 1750 900, 1800 950 T 1900 950 T 2000 950 T 2100 950" stroke="url(#pinkToBlueGradient)" fill="none" stroke-width="2"></path><path d="M 0 960 Q 50 910, 100 960 T 200 960 T 300 960 T 400 960 Q 450 910, 500 960 T 600 960 T 700 960 T 800 960 Q 850 910, 900 960 T 1000 960 T 1100 960 T 1200 960 Q 1250 910, 1300 960 T 1400 960 T 1500 960 T 1600 960 Q 1650 910, 1700 960 T 1800 960 T 1900 960 T 2000 960" stroke="url(#pinkToBlueGradient)" fill="none" stroke-width="2"></path><path d="M 100 960 Q 150 910, 200 960 T 300 960 T 400 960 T 500 960 Q 550 910, 600 960 T 700 960 T 800 960 T 900 960 Q 950 910, 1000 960 T 1100 960 T 1200 960 T 1300 960 Q 1350 910, 1400 960 T 1500 960 T 1600 960 T 1700 960 Q 1750 910, 1800 960 T 1900 960 T 2000 960 T 2100 960" stroke="url(#pinkToBlueGradient)" fill="none" stroke-width="2"></path><path d="M 0 970 Q 50 920, 100 970 T 200 970 T 300 970 T 400 970 Q 450 920, 500 970 T 600 970 T 700 970 T 800 970 Q 850 920, 900 970 T 1000 970 T 1100 970 T 1200 970 Q 1250 920, 1300 970 T 1400 970 T 1500 970 T 1600 970 Q 1650 920, 1700 970 T 1800 970 T 1900 970 T 2000 970" stroke="url(#pinkToBlueGradient)" fill="none" stroke-width="2"></path><path d="M 100 970 Q 150 920, 200 970 T 300 970 T 400 970 T 500 970 Q 550 920, 600 970 T 700 970 T 800 970 T 900 970 Q 950 920, 1000 970 T 1100 970 T 1200 970 T 1300 970 Q 1350 920, 1400 970 T 1500 970 T 1600 970 T 1700 970 Q 1750 920, 1800 970 T 1900 970 T 2000 970 T 2100 970" stroke="url(#pinkToBlueGradient)" fill="none" stroke-width="2"></path><path d="M 0 980 Q 50 930, 100 980 T 200 980 T 300 980 T 400 980 Q 450 930, 500 980 T 600 980 T 700 980 T 800 980 Q 850 930, 900 980 T 1000 980 T 1100 980 T 1200 980 Q 1250 930, 1300 980 T 1400 980 T 1500 980 T 1600 980 Q 1650 930, 1700 980 T 1800 980 T 1900 980 T 2000 980" stroke="url(#pinkToBlueGradient)" fill="none" stroke-width="2"></path><path d="M 100 980 Q 150 930, 200 980 T 300 980 T 400 980 T 500 980 Q 550 930, 600 980 T 700 980 T 800 980 T 900 980 Q 950 930, 1000 980 T 1100 980 T 1200 980 T 1300 980 Q 1350 930, 1400 980 T 1500 980 T 1600 980 T 1700 980 Q 1750 930, 1800 980 T 1900 980 T 2000 980 T 2100 980" stroke="url(#pinkToBlueGradient)" fill="none" stroke-width="2"></path><path d="M 0 990 Q 50 940, 100 990 T 200 990 T 300 990 T 400 990 Q 450 940, 500 990 T 600 990 T 700 990 T 800 990 Q 850 940, 900 990 T 1000 990 T 1100 990 T 1200 990 Q 1250 940, 1300 990 T 1400 990 T 1500 990 T 1600 990 Q 1650 940, 1700 990 T 1800 990 T 1900 990 T 2000 990" stroke="url(#pinkToBlueGradient)" fill="none" stroke-width="2"></path><path d="M 100 990 Q 150 940, 200 990 T 300 990 T 400 990 T 500 990 Q 550 940, 600 990 T 700 990 T 800 990 T 900 990 Q 950 940, 1000 990 T 1100 990 T 1200 990 T 1300 990 Q 1350 940, 1400 990 T 1500 990 T 1600 990 T 1700 990 Q 1750 940, 1800 990 T 1900 990 T 2000 990 T 2100 990" stroke="url(#pinkToBlueGradient)" fill="none" stroke-width="2"></path><path d="M 0 1000 Q 50 950, 100 1000 T 200 1000 T 300 1000 T 400 1000 Q 450 950, 500 1000 T 600 1000 T 700 1000 T 800 1000 Q 850 950, 900 1000 T 1000 1000 T 1100 1000 T 1200 1000 Q 1250 950, 1300 1000 T 1400 1000 T 1500 1000 T 1600 1000 Q 1650 950, 1700 1000 T 1800 1000 T 1900 1000 T 2000 1000" stroke="url(#pinkToBlueGradient)" fill="none" stroke-width="2"></path><path d="M 100 1000 Q 150 950, 200 1000 T 300 1000 T 400 1000 T 500 1000 Q 550 950, 600 1000 T 700 1000 T 800 1000 T 900 1000 Q 950 950, 1000 1000 T 1100 1000 T 1200 1000 T 1300 1000 Q 1350 950, 1400 1000 T 1500 1000 T 1600 1000 T 1700 1000 Q 1750 950, 1800 1000 T 1900 1000 T 2000 1000 T 2100 1000" stroke="url(#pinkToBlueGradient)" fill="none" stroke-width="2"></path><path d="M 0 1010 Q 50 960, 100 1010 T 200 1010 T 300 1010 T 400 1010 Q 450 960, 500 1010 T 600 1010 T 700 1010 T 800 1010 Q 850 960, 900 1010 T 1000 1010 T 1100 1010 T 1200 1010 Q 1250 960, 1300 1010 T 1400 1010 T 1500 1010 T 1600 1010 Q 1650 960, 1700 1010 T 1800 1010 T 1900 1010 T 2000 1010" stroke="url(#pinkToBlueGradient)" fill="none" stroke-width="2"></path><path d="M 100 1010 Q 150 960, 200 1010 T 300 1010 T 400 1010 T 500 1010 Q 550 960, 600 1010 T 700 1010 T 800 1010 T 900 1010 Q 950 960, 1000 1010 T 1100 1010 T 1200 1010 T 1300 1010 Q 1350 960, 1400 1010 T 1500 1010 T 1600 1010 T 1700 1010 Q 1750 960, 1800 1010 T 1900 1010 T 2000 1010 T 2100 1010" stroke="url(#pinkToBlueGradient)" fill="none" stroke-width="2"></path></svg>