<svg fill="none" height="40" viewBox="0 0 114 40" width="114" xmlns="http://www.w3.org/2000/svg"><path d="m19.9892 39.9687c11.0385 0 19.987-8.9473 19.987-19.9843 0-11.03705-8.9485-19.98432371-19.987-19.98432371-11.03861 0-19.9871248 8.94727371-19.9871248 19.98432371 0 11.037 8.9485148 19.9843 19.9871248 19.9843z" fill="#f06040"/><path d="m31.6481 3.75372c-3.2106-2.306-7.0329-3.608304-10.9837-3.7422394-3.9508-.1339346-7.8526.9065194-11.212 2.9897894-3.35938 2.08327-6.02548 5.11579-7.66115 8.71413-1.635671 3.5982-2.167444 7.6007-1.528075 11.5012.639369 3.9004 2.421165 7.5238 5.120065 10.4117 2.6989 2.888 6.19366 4.9109 10.04246 5.8129 3.8487.9021 7.8785.6427 11.5799-.7452 3.7013-1.3879 6.9079-3.8421 9.2142-7.0522 1.5314-2.1314 2.6279-4.5436 3.2269-7.0987s.6888-5.2032.2643-7.7931c-.4245-2.5898-1.3551-5.0707-2.7385-7.30092-1.3834-2.23026-3.1927-4.16622-5.3244-5.69736z" fill="#e55231"/><path d="m3.47949 31.257s13.20761-4.3262 36.48561-11.9162c0 0 1.275 12.4297-11.611 18.9131 0 0-6.3544 3.0455-13.3257 1.0919 0 0-6.94173-1.3103-11.54891-8.0888z" fill="#2b286c"/><g fill="#fff"><path d="m52 10h6.9306c1.237 0 2.3557.2066 3.3562.6197 1.0187.4132 1.8827 1.0329 2.5922 1.8592.7276.8075 1.2824 1.831 1.6644 3.0704.4002 1.2207.6003 2.6479.6003 4.2817s-.2001 3.0704-.6003 4.3098c-.382 1.2207-.9368 2.2442-1.6644 3.0705-.7095.8075-1.5735 1.4178-2.5922 1.831-1.0005.4131-2.1192.6197-3.3562.6197h-6.9306zm6.9306 16.3662c1.3461 0 2.4103-.4038 3.1925-1.2113.8004-.8263 1.2006-2.0845 1.2006-3.7746v-3.0986c0-1.6902-.4002-2.939-1.2006-3.7465-.7822-.8263-1.8464-1.2394-3.1925-1.2394h-3.3289v13.0704z"/><path d="m78.8344 27.2113h-.1364c-.1273.3756-.3002.7324-.5184 1.0704-.2001.3192-.4639.6103-.7913.8732-.3093.2629-.6913.4695-1.146.6197-.4366.1503-.946.2254-1.5281.2254-1.4734 0-2.6012-.4977-3.3834-1.493s-1.1733-2.4131-1.1733-4.2535v-9.2958h3.4926v8.9296c0 1.0141.191 1.7935.573 2.3381.382.5258.9914.7887 1.8282.7887.3456 0 .6821-.047 1.0095-.1409.3457-.0939.6458-.2347.9005-.4225.2546-.2066.4638-.4507.6275-.7324.1638-.3005.2456-.6479.2456-1.0422v-9.7184h3.4926v14.7043h-3.4926z"/><path d="m86.0895 29.662v-14.7043h3.4926v2.4508h.1364c.2911-.7888.7458-1.4461 1.3643-1.9719.6367-.5446 1.5098-.8169 2.6195-.8169 1.4734 0 2.6012.4977 3.3834 1.493s1.1733 2.4131 1.1733 4.2535v9.2958h-3.4926v-8.9296c0-1.0516-.1819-1.8404-.5457-2.3662s-.9641-.7887-1.8009-.7887c-.3638 0-.7185.0563-1.0641.169-.3275.0939-.6276.2441-.9005.4507-.2546.1878-.4638.4319-.6275.7324-.1638.2817-.2456.6197-.2456 1.0141v9.7183z"/><path d="m107.615 30c-1.055 0-2.001-.1784-2.838-.5352-.818-.3756-1.519-.892-2.101-1.5493-.564-.6761-1-1.4836-1.309-2.4225-.31-.9578-.464-2.0282-.464-3.2113 0-1.1643.145-2.216.436-3.1549.31-.939.746-1.7371 1.31-2.3944.564-.6761 1.255-1.1925 2.074-1.5493.818-.3756 1.746-.5634 2.783-.5634 1.11 0 2.074.1972 2.892.5916.819.3943 1.492.9295 2.019 1.6056.528.6761.919 1.4648 1.174 2.3662.273.8826.409 1.831.409 2.8451v1.1831h-9.468v.3662c0 1.0704.291 1.9342.873 2.5915.582.6385 1.446.9578 2.592.9578.873 0 1.583-.1878 2.128-.5634.564-.3756 1.065-.8545 1.501-1.4366l1.883 2.169c-.582.845-1.383 1.5117-2.401 2-1.001.4695-2.165.7042-3.493.7042zm-.054-12.6761c-.928 0-1.665.3193-2.211.9578-.545.6385-.818 1.4648-.818 2.4789v.2253h5.839v-.2535c0-1.0141-.246-1.831-.737-2.4507-.473-.6385-1.164-.9578-2.073-.9578z"/></g></svg>