<svg enable-background="new 0 0 1935.9 852" viewBox="0 0 1935.9 852" xmlns="http://www.w3.org/2000/svg"><path d="m562.5 321.9c24.2 0 48.3.1 72.5-.1 6.4 0 11.5 1.8 16.9 5.7 8.1 5.8 17.4 9.7 26.2 14.5 6.9 3.8 13.3 8.1 20 12.2 10.7 6.4 10.2 21.8 4.1 29.4-15.9 19.5-31.4 39.2-47.1 58.9l-121.1 151.3c-40.3 50.5-80.6 100.9-120.9 151.4-2.6 3.5-5.9 6.4-9.6 8.7-7.1 4-14.2 4.2-21.3-.1-13.1-8.1-24.2-18.7-35.4-29.2-1.6-1.7-3.4-3.1-5.5-4.1-10.5-4.5-14-11.7-11.2-22.8 11.7-44.9 23.5-89.7 35.2-134.6 1.9-7.2 1.9-7.2-5.3-7.2-42.5 0-85-.1-127.4.1-5.7.1-11.2-1.7-15.6-5.3-18.7-14.6-35-31.7-51.4-48.8-1-1.3-2.3-2.3-3.8-3-13.2-4.8-16.8-17.6-8-28.7 13.6-17.2 27.5-34.3 41.2-51.5l118-147.4c38.5-48.1 77-96.2 115.5-144.2 4.7-5.9 9.3-11.7 14-17.6 8.9-11.3 17.3-12.4 28.6-3.7 2.4 1.9 5.4 2.6 8.1 3.8 13.3 6 25.4 13.9 37.9 21.2 8 4.7 11.1 14.3 8.5 24.2-12.2 47-24.5 93.9-36.8 140.9-1.9 7.2-3.6 14.5-5.8 21.7-1.2 3.8-.4 4.8 3.6 4.8 25.3-.2 50.6-.1 76-.1z" fill="#73bd9c"/><g fill="#fefefe"><path d="m393 747.9c-3-.3-5.9-1.4-8.4-3.1-10.2-6.8-18.9-15.2-28-23.2-1-.8-2.1-1.7-.5-3.2 9.8-8.6 16.9-19.6 25-29.7 41.8-52.1 83.5-104.2 125.1-156.4 42-52.5 84-105.1 125.9-157.6 5.9-7.4 11.9-14.8 17.8-22.2 2.3-2.9 4.6-5.7 5.3-9.5.4-2.2 1.3-2.7 3.4-1.5 11.2 6.2 22.7 12 33.4 19 6.7 4.4 8 11 3 17.5-9.6 12.4-19.5 24.5-29.2 36.7-40.7 50.9-81.4 101.8-122 152.6l-120.7 151c-6.1 7.7-12.3 15.3-18.4 23-2.7 3.8-7 6.2-11.7 6.6z"/><path d="m447.7 322.3c-6.8 0-13.7-.1-20.5.1-3.6.1-4.6-.7-3.6-4.5 13.9-52.7 27.7-105.4 41.4-158.2 3.4-13 6.8-26 10-39.1.6-2.7 1.5-2.3 3.3-1.4 11.6 5.8 22.9 12.3 33.7 19.4 5.7 3.7 6 9.6 4.4 15.7-12.2 46.8-24.5 93.6-36.7 140.4-2.1 8-4.4 16-6.3 24.1-.7 2.8-1.9 3.7-4.7 3.7-7-.2-14-.1-21-.1z"/><path d="m176 498.9h163c13 0 26 0 39-.1 3.3 0 4.3.5 3.3 4.2-3.7 13.3-7.1 26.7-10.4 40-.7 2.9-2 3.9-5.1 3.9-45.3-.1-90.6-.1-135.8 0-2.2.1-4.3-.6-5.9-2-15.9-13.2-31-27.3-45.3-42.2-1.1-1.2-2-2.4-2.8-3.8z"/></g><path clip-rule="evenodd" d="m1709.7 603.5h-69.2l76.6-360.4h69.2zm-256.4-114.9c0 1.9-.2 5.4-.2 7.3 0 40.2 25.3 59.8 54.8 59.8 26.5 0 44.6-11.1 51.5-27.4h66.7c-12.4 48.8-58.2 80.6-122.5 80.6-67.4 0-115.3-41.4-115.3-112 0-95.5 57.7-160 141.1-160 62.4 0 109.9 42.5 109.9 109.2 0 10.6-1.9 30.2-4 42.5zm73.6-98.8c-32 0-57.1 22.2-66.1 55.3h113.2c.2-1.4.7-5.7.7-9 .1-25.9-17.9-46.3-47.8-46.3zm-259.6 213.7 8.5-39.7h-4.1c-15.7 27.6-41.3 45.1-77.7 45.1-47.5 0-79.6-30-79.6-76.1 0-8 1.4-20.6 3.5-33.3l32.8-156.9h69.2l-31 145.6c-1.4 6.6-2.4 15.4-2.4 20.3 0 26.9 13.2 40.9 41.1 40.9 31.4 0 52.9-21.7 60-54.6l32.4-152.2h69l-55.1 260.9zm-283.4-280.3-19.6 88.9h138.5l-12.3 58.4h-138.3l-28.4 133.1h-71.8l73-340.4h222.9l-12.5 60.1h-151.5z" fill="#74be9d" fill-rule="evenodd"/></svg>