<?xml version="1.0" encoding="utf-8"?>
<!-- Generator: Adobe Illustrator 25.4.1, SVG Export Plug-In . SVG Version: 6.00 Build 0)  -->
<svg version="1.1" id="Layer_1" xmlns="http://www.w3.org/2000/svg" xmlns:xlink="http://www.w3.org/1999/xlink" x="0px" y="0px"
	 viewBox="0 0 1935.9 852" style="enable-background:new 0 0 1935.9 852;" xml:space="preserve">
<style type="text/css">
	.st0{fill:#73BD9C;}
	.st1{fill:#FEFEFE;}
	.st2{fill-rule:evenodd;clip-rule:evenodd;fill:#74BE9D;}
</style>
<path class="st0" d="M562.5,321.9c24.2,0,48.3,0.1,72.5-0.1c6.4,0,11.5,1.8,16.9,5.7c8.1,5.8,17.4,9.7,26.2,14.5
	c6.9,3.8,13.3,8.1,20,12.2c10.7,6.4,10.2,21.8,4.1,29.4c-15.9,19.5-31.4,39.2-47.1,58.9L534,593.8
	c-40.3,50.5-80.6,100.9-120.9,151.4c-2.6,3.5-5.9,6.4-9.6,8.7c-7.1,4-14.2,4.2-21.3-0.1c-13.1-8.1-24.2-18.7-35.4-29.2
	c-1.6-1.7-3.4-3.1-5.5-4.1c-10.5-4.5-14-11.7-11.2-22.8c11.7-44.9,23.5-89.7,35.2-134.6c1.9-7.2,1.9-7.2-5.3-7.2
	c-42.5,0-85-0.1-127.4,0.1c-5.7,0.1-11.2-1.7-15.6-5.3c-18.7-14.6-35-31.7-51.4-48.8c-1-1.3-2.3-2.3-3.8-3
	c-13.2-4.8-16.8-17.6-8-28.7c13.6-17.2,27.5-34.3,41.2-51.5l118-147.4c38.5-48.1,77-96.2,115.5-144.2c4.7-5.9,9.3-11.7,14-17.6
	c8.9-11.3,17.3-12.4,28.6-3.7c2.4,1.9,5.4,2.6,8.1,3.8c13.3,6,25.4,13.9,37.9,21.2c8,4.7,11.1,14.3,8.5,24.2
	c-12.2,47-24.5,93.9-36.8,140.9c-1.9,7.2-3.6,14.5-5.8,21.7c-1.2,3.8-0.4,4.8,3.6,4.8c25.3-0.2,50.6-0.1,76-0.1L562.5,321.9z"/>
<path class="st1" d="M393,747.9c-3-0.3-5.9-1.4-8.4-3.1c-10.2-6.8-18.9-15.2-28-23.2c-1-0.8-2.1-1.7-0.5-3.2
	c9.8-8.6,16.9-19.6,25-29.7c41.8-52.1,83.5-104.2,125.1-156.4c42-52.5,84-105.1,125.9-157.6c5.9-7.4,11.9-14.8,17.8-22.2
	c2.3-2.9,4.6-5.7,5.3-9.5c0.4-2.2,1.3-2.7,3.4-1.5c11.2,6.2,22.7,12,33.4,19c6.7,4.4,8,11,3,17.5c-9.6,12.4-19.5,24.5-29.2,36.7
	c-40.7,50.9-81.4,101.8-122,152.6l-120.7,151c-6.1,7.7-12.3,15.3-18.4,23C402,745.1,397.7,747.5,393,747.9z"/>
<path class="st1" d="M447.7,322.3c-6.8,0-13.7-0.1-20.5,0.1c-3.6,0.1-4.6-0.7-3.6-4.5c13.9-52.7,27.7-105.4,41.4-158.2
	c3.4-13,6.8-26,10-39.1c0.6-2.7,1.5-2.3,3.3-1.4c11.6,5.8,22.9,12.3,33.7,19.4c5.7,3.7,6,9.6,4.4,15.7
	c-12.2,46.8-24.5,93.6-36.7,140.4c-2.1,8-4.4,16-6.3,24.1c-0.7,2.8-1.9,3.7-4.7,3.7c-7-0.2-14-0.1-21-0.1L447.7,322.3z"/>
<path class="st1" d="M176,498.9h163c13,0,26,0,39-0.1c3.3,0,4.3,0.5,3.3,4.2c-3.7,13.3-7.1,26.7-10.4,40c-0.7,2.9-2,3.9-5.1,3.9
	c-45.3-0.1-90.6-0.1-135.8,0c-2.2,0.1-4.3-0.6-5.9-2c-15.9-13.2-31-27.3-45.3-42.2C177.7,501.5,176.8,500.3,176,498.9z"/>
<path class="st2" d="M1709.7,603.5h-69.2l76.6-360.4h69.2L1709.7,603.5z M1453.3,488.6c0,1.9-0.2,5.4-0.2,7.3
	c0,40.2,25.3,59.8,54.8,59.8c26.5,0,44.6-11.1,51.5-27.4h66.7c-12.4,48.8-58.2,80.6-122.5,80.6c-67.4,0-115.3-41.4-115.3-112
	c0-95.5,57.7-160,141.1-160c62.4,0,109.9,42.5,109.9,109.2c0,10.6-1.9,30.2-4,42.5H1453.3z M1526.9,389.8c-32,0-57.1,22.2-66.1,55.3
	H1574c0.2-1.4,0.7-5.7,0.7-9C1574.8,410.2,1556.8,389.8,1526.9,389.8z M1267.3,603.5l8.5-39.7h-4.1c-15.7,27.6-41.3,45.1-77.7,45.1
	c-47.5,0-79.6-30-79.6-76.1c0-8,1.4-20.6,3.5-33.3l32.8-156.9h69.2l-31,145.6c-1.4,6.6-2.4,15.4-2.4,20.3
	c0,26.9,13.2,40.9,41.1,40.9c31.4,0,52.9-21.7,60-54.6l32.4-152.2h69l-55.1,260.9H1267.3z M983.9,323.2l-19.6,88.9h138.5l-12.3,58.4
	H952.2l-28.4,133.1H852l73-340.4h222.9l-12.5,60.1H983.9z"/>
</svg>
