<svg xmlns="http://www.w3.org/2000/svg" width="146" height="34.744" viewBox="0 0 146 34.744">
  <g id="logo" transform="translate(-145 -31.181)">
    <g id="Galaxis_black_logo" data-name="Galaxis_black logo" transform="translate(145 31.181)">
      <g id="Group_280" data-name="Group 280" transform="translate(38.12 8.793)">
        <path id="Path_344" data-name="Path 344" d="M984.175,369.888a4.852,4.852,0,0,0-1.934-1.344,27.647,27.647,0,0,0-2.986-.9q-1.552-.383-2.494-.715a4.135,4.135,0,0,1-1.544-.936,2.21,2.21,0,0,1-.611-1.633,2.674,2.674,0,0,1,1.12-2.212,5.475,5.475,0,0,1,3.325-.851,8.268,8.268,0,0,1,2.358.357,8.037,8.037,0,0,1,2.257,1.055l.594-1.429a8.14,8.14,0,0,0-2.392-1.089,9.876,9.876,0,0,0-2.816-.391,8.34,8.34,0,0,0-3.461.63,4.7,4.7,0,0,0-2.07,1.667,4.3,4.3,0,0,0-.679,2.331,3.7,3.7,0,0,0,.8,2.484,4.961,4.961,0,0,0,1.934,1.361,24.876,24.876,0,0,0,3.02.919,23.122,23.122,0,0,1,2.477.715,4.262,4.262,0,0,1,1.493.919,2.17,2.17,0,0,1,.611,1.616,2.559,2.559,0,0,1-1.137,2.161,5.642,5.642,0,0,1-3.393.834,8.887,8.887,0,0,1-3.122-.561,6.678,6.678,0,0,1-2.426-1.48l-.7,1.378a6.467,6.467,0,0,0,2.647,1.582,10.574,10.574,0,0,0,3.6.6,8.727,8.727,0,0,0,3.478-.612,4.6,4.6,0,0,0,2.1-1.667,4.16,4.16,0,0,0,.679-2.331,3.366,3.366,0,0,0-.729-2.45" transform="translate(-877.031 -359.783)" fill="#fff"/>
        <path id="Path_345" data-name="Path 345" d="M519.586,360.6,511.9,377.459h1.883l4.835-1.8h-4.038l5.9-13.2,6.7,15h1.849L521.35,360.6Z" transform="translate(-494.662 -360.447)" fill="#fff"/>
        <path id="Path_346" data-name="Path 346" d="M836.2,424.513h2.053L843.5,417.3l-3.173,1.616Z" transform="translate(-763.939 -407.501)" fill="#fff"/>
        <path id="Path_347" data-name="Path 347" d="M847.575,367.575l5.107-6.975h-1.917l-5.056,6.89-5.056-6.89H838.6l5.972,8.166Z" transform="translate(-765.932 -360.447)" fill="#fff"/>
        <path id="Path_348" data-name="Path 348" d="M880.5,412.949l5.361,7.332h2.07l-5.955-8.081Z" transform="translate(-800.723 -403.269)" fill="#fff"/>
        <path id="Path_349" data-name="Path 349" d="M941.4,364.258l1.781-.681V360.6H941.4Z" transform="translate(-851.291 -360.447)" fill="#fff"/>
        <path id="Path_350" data-name="Path 350" d="M941.4,393.808h1.781V380.3l-1.781.919Z" transform="translate(-851.291 -376.795)" fill="#fff"/>
        <path id="Path_351" data-name="Path 351" d="M726.586,360.6,718.9,377.459h1.883l4.835-1.8h-4.038l5.9-13.2,6.7,15h1.849L728.35,360.6Z" transform="translate(-666.541 -360.447)" fill="#fff"/>
        <path id="Path_352" data-name="Path 352" d="M415.577,362.2a7.613,7.613,0,0,1,3.682-.9,6.95,6.95,0,0,1,5.073,1.973l1.1-1.14a7.022,7.022,0,0,0-2.715-1.82,9.858,9.858,0,0,0-3.529-.612,9.391,9.391,0,0,0-4.564,1.106,8.132,8.132,0,0,0-3.173,3.079,8.926,8.926,0,0,0,0,8.778,8.088,8.088,0,0,0,3.173,3.062,9.324,9.324,0,0,0,4.547,1.106,10.291,10.291,0,0,0,3.393-.561,8.427,8.427,0,0,0,2.782-1.582V369.7l-1.714.766v3.471a7.3,7.3,0,0,1-4.394,1.293,7.438,7.438,0,0,1-3.682-.919,6.711,6.711,0,0,1-2.562-2.5,6.844,6.844,0,0,1-.933-3.573,6.931,6.931,0,0,1,.933-3.573,6.672,6.672,0,0,1,2.579-2.467" transform="translate(-410.3 -359.7)" fill="#fff"/>
        <path id="Path_353" data-name="Path 353" d="M643.317,360.6H643.3l.017.017Z" transform="translate(-603.768 -360.447)" fill="#fff"/>
        <path id="Path_354" data-name="Path 354" d="M634.682,361l-1.781.8v15.992h11.2v-1.548h-9.416Z" transform="translate(-595.133 -360.779)" fill="#fff"/>
      </g>
      <g id="Group_281" data-name="Group 281" transform="translate(0)">
        <path id="Path_355" data-name="Path 355" d="M230.355,340.7a6.82,6.82,0,0,1,2.664,1.837,7.315,7.315,0,1,1-11.571,8.846,3.906,3.906,0,0,0-3.733-2.025,3.982,3.982,0,0,0-3.631,3.658,3.921,3.921,0,0,0,3.309,4.2,9.381,9.381,0,0,0,1.544-.051c.136,0,.305-.034.407.034.984.664,1.951,1.361,2.935,2.041a6.936,6.936,0,0,1-2.969,1.259,7.322,7.322,0,0,1-2.783-14.375c.526-.1,1.069-.136,1.595-.187a3.691,3.691,0,0,0,3.325-2.433A3.957,3.957,0,0,0,216.8,338.2a3.864,3.864,0,0,0-2.867,2.977.611.611,0,0,1-.254.357c-.967.51-1.951,1-2.935,1.48a1.075,1.075,0,0,1-.153.034,7.16,7.16,0,0,1,.577-4.083,7.307,7.307,0,0,1,13.285,6.09c-.136.289-.254.578-.407.868a3.9,3.9,0,0,0,2.765,5.41,3.981,3.981,0,0,0,4.36-2.076,3.924,3.924,0,0,0-.882-4.746.631.631,0,0,1-.2-.425c.051-1.089.136-2.178.221-3.249A.269.269,0,0,0,230.355,340.7Z" transform="translate(-206.283 -330.154)" fill="#fff"/>
        <path id="Path_356" data-name="Path 356" d="M207.98,322.691a2.869,2.869,0,0,1,1.8,2.858,2.822,2.822,0,0,1-2.766,2.6,2.742,2.742,0,0,1-2.783-2.6,3.38,3.38,0,0,1,.356-1.582,8.439,8.439,0,0,0-.916-9.476,8.433,8.433,0,0,0-14.761,3.658,7.032,7.032,0,0,0,.1,3.2.547.547,0,0,1-.085.459c-.73.8-1.493,1.582-2.223,2.348a11.256,11.256,0,0,1,1.12-11.483,11.439,11.439,0,0,1,13.539-3.811A11.571,11.571,0,0,1,207.98,322.691Z" transform="translate(-185.621 -308.011)" fill="#fff"/>
        <path id="Path_357" data-name="Path 357" d="M207.392,382.643a11.13,11.13,0,0,1-2.969,2.739,11.42,11.42,0,1,1-9.349-20.619.455.455,0,0,0,.407-.527,2.788,2.788,0,0,1,5.565-.187,2.733,2.733,0,0,1-2.426,3.028,10.7,10.7,0,0,0-3.58.766,8.478,8.478,0,0,0,2.087,16.111,8.257,8.257,0,0,0,6.685-1.786.67.67,0,0,1,.662-.136C205.407,382.234,206.374,382.422,207.392,382.643Z" transform="translate(-186.73 -352.397)" fill="#fff"/>
        <path id="Path_358" data-name="Path 358" d="M252.267,343.5a11.323,11.323,0,0,1,9.552,8.489,11.423,11.423,0,0,1-19.053,10.99,2.842,2.842,0,0,1-2.935.1,2.8,2.8,0,1,1,3.75-3.913,8.143,8.143,0,0,0,7.058,4.117,8.468,8.468,0,0,0,2.986-16.451.562.562,0,0,1-.424-.51,11.19,11.19,0,0,0-.39-1.429C252.64,344.419,252.454,343.976,252.267,343.5Z" transform="translate(-229.434 -337.463)" fill="#fff"/>
      </g>
    </g>
  </g>
</svg>
