<svg fill="none" height="160" viewBox="0 0 54 80" width="108" xmlns="http://www.w3.org/2000/svg" xmlns:xlink="http://www.w3.org/1999/xlink"><clipPath id="a"><path d="m0 6h54v73.193h-54z"/></clipPath><g clip-path="url(#a)" fill="#abfe2c"><path d="m.64209 78.8548v-16.8621h2.02338v15.0316h8.80323v1.8305z"/><path d="m13.5249 78.8548v-16.8621h10.3826v1.8305h-8.3592v5.6407h6.7743v1.8305h-6.7743v5.7336h8.4793v1.8305z"/><path d="m26.0015 78.8548v-16.8621h4.2906l5.8772 15.5866h.6769v-15.5866h2.0016v16.8621h-4.2924l-5.8537-15.6066h-.7005v15.6084z"/><path d="m47.408 79.1912c-1.1255.0189-2.2421-.2026-3.2752-.6496-.938-.4121-1.7309-1.096-2.2763-1.9633-.5532-.8758-.8304-1.9718-.8316-3.288v-.5058h2.0016v.5058c0 1.3975.4094 2.437 1.2282 3.1188.8188.6817 1.8699 1.0256 3.1533 1.0317 1.3162 0 2.3194-.2972 3.0096-.8916.3309-.2707.5961-.613.7758-1.0009.1796-.388.269-.8116.2614-1.239.029-.5386-.1385-1.0694-.4713-1.4939-.358-.4041-.808-.7161-1.3119-.9098-.6381-.2575-1.2959-.4632-1.967-.615l-1.2519-.313c-.8961-.2264-1.7677-.5409-2.602-.9389-.7041-.327-1.3134-.828-1.7704-1.4557-.4258-.6065-.6387-1.3816-.6387-2.3254-.022-.8726.2266-1.7306.7114-2.4565.5-.7119 1.1951-1.2642 2.0016-1.5903.9441-.3828 1.9565-.5685 2.975-.5459 1.0535-.0168 2.0991.1839 3.0715.5896.8597.3599 1.5994.9569 2.1326 1.7213.5228.7642.7836 1.7238.7824 2.8786v1.0117h-2.0016v-1.0117c0-.8188-.1722-1.4769-.5167-1.9742-.3518-.5037-.847-.8898-1.4211-1.1082-.657-.2521-1.3562-.3756-2.0598-.3639-1.1075 0-1.9991.2426-2.6748.7278-.6757.4853-1.0129 1.1797-1.0117 2.0835-.0237.5167.129 1.0262.4331 1.4447.3273.4015.7503.7143 1.23.9098.6141.2612 1.2505.4664 1.9015.6132l1.2537.3148c.9083.1847 1.7928.4716 2.6366.8552.7352.3258 1.377.8307 1.8669 1.4684.4658.6187.6987 1.426.6987 2.4219.0207.9223-.2394 1.8292-.746 2.6002-.5261.7614-1.2565 1.3587-2.1071 1.7232-1.0071.4312-2.0945.6427-3.1898.6204z"/><path d="m27.065 39.9117c-.5349 0-13.2302-.111-22.94139-9.8258-.20561-.2038-.40577-.4112-.60228-.6186-2.0343-2.1435-2.998687-4.6946-2.794893-7.3748.181959-2.3655 1.273713-4.6564 3.066013-6.4541 1.79229-1.7978 4.09044-2.8859 6.45405-3.066 2.4765-.182 4.8438.6223 6.8836 2.3509.2201-2.6639 1.3192-4.9129 3.2043-6.52872 1.7995-1.54484 4.185-2.39458 6.7324-2.39458 2.5475 0 4.933.84974 6.7325 2.39458 1.8833 1.61762 2.9842 3.86482 3.2043 6.52872 2.0398-1.7286 4.4071-2.5475 6.8835-2.3509 2.3655.1819 4.6564 1.2737 6.4523 3.066s2.8877 4.0904 3.066 6.4541c.2056 2.6802-.7606 5.2313-2.7931 7.3784-.1965.2074-.3966.4149-.6022.6187-9.713 9.7111-22.4083 9.8221-22.9451 9.8221zm-16.1161-25.3505c-2.2017 0-4.26876 1.0244-5.73899 2.4928-2.64205 2.6439-3.84298 7.2256-.23291 11.0413.18439.1953.37241.3888.56408.5804 9.13072 9.1289 21.40382 9.2345 21.52572 9.2345.122 0 12.4206-.1274 21.5276-9.2345.1929-.1928.3809-.3863.5641-.5804 3.6101-3.8211 2.4091-8.3974-.2329-11.0413-2.6421-2.6439-7.2256-3.8448-11.0468-.2329-.1953.1832-.3887.3712-.5804.5641-.1474.1474-.2911.2984-.4331.4494l-1.8978 2.0125.0746-2.7622c0-.211.0127-.4203.0127-.6332 0-.2729 0-.5458-.0109-.8097-.1455-5.2495-4.2342-7.64227-7.9734-7.64227-3.7393 0-7.8243 2.39097-7.9717 7.64227 0 .2675-.0109.5459-.0109.8097 0 .2075 0 .4113.0109.6169l.0747 2.7785-1.8997-2.0016c-.1437-.1528-.2893-.3057-.4385-.4567-.1929-.1929-.3864-.3809-.5805-.5641-1.7013-1.6139-3.5482-2.2635-5.3059-2.2635z"/><path d="m25.7818 29.3107h-1.4557c0-2.1672-2.1107-3.9322-4.7018-3.9322s-4.7018 1.765-4.7018 3.9322h-1.4557c0-2.9714 2.7621-5.3878 6.1575-5.3878 3.3953 0 6.1575 2.4164 6.1575 5.3878z"/><path d="m40.5821 29.2507h-1.4557c0-2.1671-2.1089-3.9303-4.7018-3.9303s-4.7018 1.7632-4.7018 3.9303h-1.4557c0-2.9695 2.7621-5.386 6.1575-5.386 3.3953 0 6.1575 2.4165 6.1575 5.386z"/><path d="m21.2999 29.3415c1.1567 0 2.0944-.9376 2.0944-2.0943s-.9377-2.0944-2.0944-2.0944-2.0943.9377-2.0943 2.0944.9376 2.0943 2.0943 2.0943z"/><path d="m36.0026 29.3415c1.1566 0 2.0943-.9376 2.0943-2.0943s-.9377-2.0944-2.0943-2.0944c-1.1567 0-2.0944.9377-2.0944 2.0944s.9377 2.0943 2.0944 2.0943z"/><path d="m27.0593 34.662c-1.7158 0-3.3062-.8825-4.0486-2.2472l1.2738-.6951c.4931.9098 1.5794 1.4866 2.7712 1.4866s2.2799-.5841 2.7712-1.4866l1.2737.6951c-.7351 1.3647-2.3199 2.2472-4.0413 2.2472z"/><path d="m53.1464 54.8398c-3.6476 1.708-7.7592 2.156-11.6891 1.2737-3.2528-.7212-6.239-2.3378-8.6212-4.6672 1.5081.625 3.1258.9429 4.7582.9353 2.8227.0006 5.5755-.877 7.8771-2.5111l-1.1682-1.6267c-3.1497 2.2672-7.4822 2.8131-10.9012 1.2683-3.3735-1.5194-5.2768-4.771-5.3987-9.1799v-1.4211h-2.0016v.2511 1.1591c-.1164 4.4143-2.0234 7.6696-5.4005 9.1908-3.419 1.5412-7.7587 1.0026-10.90118-1.2737l-1.16636 1.6267c2.30004 1.6347 5.05154 2.5135 7.87334 2.5146 1.6325.008 3.2502-.3099 4.7583-.9352-2.3815 2.3293-5.3672 3.946-8.6194 4.6672-3.92989.8824-8.04153.4344-11.689093-1.2737l-.85338903 1.8105c2.67874203 1.2574 5.60202203 1.9079 8.56117203 1.9051 1.48681.0005 2.96911-.1636 4.41981-.4895 4.4514-.9882 8.4279-3.4762 11.2632-7.0472l.0128-.0164c.6653-.8728 1.2494-1.8047 1.745-2.784v10.3007h2.0015v-10.2861c.4949.9744 1.0771 1.902 1.7396 2.7712l.0127.0164c2.835 3.5705 6.8108 6.0585 11.2614 7.0473 1.4507.3258 2.933.49 4.4198.4894 2.9598.0028 5.8836-.6477 8.563-1.9051z"/></g></svg>