<svg height="200" viewBox="0 0 200 200" width="200" xmlns="http://www.w3.org/2000/svg"><path d="m101.199219 146.601562c-35.398438-.203124-38-33.203124-35-40.800781 0 0 2.199219 17.597657 22.199219 13.199219 19.800781-4.398438 9.800781-34.199219 9.402343-35.199219.199219.199219 3.800781 3.597657 6.800781 8.199219 3.199219 4.800781 4 12.800781 3 20-1 7-.402343 16.800781 12.398438 13.199219 15.800781-4.398438 14.398438-29.199219 14.398438-29.199219 7.203124 8.199219 7.800781 50.800781-33.199219 50.601562zm0 0" fill="#fed428"/><path d="m128.199219 77.199219c-.800781 5.800781 1.199219 17 .402343 24-.601562 5.800781-3.601562 10.199219-6.203124 11.402343-2.398438 1.199219-4 .398438-4-1.601562-.199219-2.199219 1.402343-6 1.203124-9.199219-.203124-4-2.601562-8.601562-2.601562-8.601562l1.398438-2.597657 1.203124 1.796876c.558594.851562 1.089844 1.71875 1.597657 2.601562 0 0 2.402343-14.800781 6.601562-23.199219 3-6 10.398438-8.402343 10.800781-8.601562-5.800781 3.402343-9.402343 6.800781-10.402343 14zm0 0" fill="#c60404"/><path d="m124 75.199219-2.601562 8.402343c-1.199219 3.597657-3 7.199219-3 7.199219l-1.398438 2.597657s-2-4-4.199219-7l-4.601562-6.199219s.402343-1.199219.800781-3.199219l1.800781 1.398438s1.199219-4.199219 1.398438-10.398438c.199219-5.199219-1.398438-11.199219-1.398438-11.199219 2 1.597657 5.199219 4.597657 7.398438 7.597657 2.800781 3.402343 5.800781 10.800781 5.800781 10.800781zm0 0" fill="#a70c0c"/><path d="m88.601562 100c-.203124.398438-6 9.601562-14.800781 4.398438-1.601562-1-2.800781-2-3.601562-3.398438-5.199219-8 1.402343-21.601562 1.601562-22.398438v.597657c-.601562 3.402343-2.601562 17.199219 2.597657 21 .203124.199219.402343.199219.601562.402343.398438.199219.601562.398438 1 .597657 4.800781 2.199219 8.601562 1 10.800781 0 .199219 0 .199219-.199219.398438-.199219.800781-.601562 1.199219-1 1.402343-1zm0 0" fill="#a40a0a"/><path d="m112.398438 68c-.199219 6.199219-1.398438 10.398438-1.398438 10.398438l-1.800781-1.398438c.601562-2.199219 1.199219-5.398438 1.402343-8.398438.597657-6.601562-1.402343-13-1.402343-13s.601562.597657 1.601562 1.398438c.199219 0 1.800781 5.800781 1.597657 11zm-23.796876 32c-.203124 0-.601562.398438-1.402343 1-.199219 0-.199219.199219-.398438.199219-2.199219 1-6 2.199219-10.800781 0-.398438-.199219-.601562-.398438-1-.597657-.199219-.203124-.398438-.203124-.601562-.402343-5.199219-3.800781-3.199219-17.800781-2.597657-21-.199219 2.402343-1 11 2.597657 16.601562 4 6.398438 14.203124 4.199219 14.203124 4.199219zm54-9c-4.800781-9.800781-4.800781-17.398438-4.800781-21 0-3.800781 2.597657-6.800781 2.597657-6.800781s-.796876 0-1.796876.199219c-2.203124.601562-6.601562 1.601562-8.601562 3.402343-4.601562 4-5.800781 8.398438-5.800781 8.398438s-1.398438 4.800781-2.597657 8.402343c-1.203124 3.597657-3 7.199219-3 7.199219l1.199219 1.800781c.558594.847657 1.089844 1.714844 1.597657 2.597657 0 0 2.402343-14.800781 6.601562-23.199219 3-6 10.398438-8.398438 10.800781-8.601562-6 3-9.601562 6.402343-10.402343 13.800781-.796876 5.800781 1.203124 17 .402343 24-.601562 5.800781-3.601562 10.199219-6.199219 11.402343-2.402343 1.199219-4 .398438-4-1.601562-.203124-2.199219 1.398438-6 1.199219-9.199219-.199219-4-2.601562-8.601562-2.601562-8.601562s-2-4-4.199219-7l-4.601562-6.199219s-8-7.800781-6.398438-19.601562c1.199219-10 9.601562-16.199219 10-16.597657-.800781.199219-12 2.597657-18.800781 12.597657-5.597657 8.203124-6.398438 16.601562-3.597657 27.800781 2.398438 10-.800781 15.601562-.800781 15.601562-.199219.398438-6 9.597657-14.800781 4.398438-1.601562-1-2.800781-2-3.601562-3.398438-5.199219-8 1.402343-21.601562 1.601562-22.402343 0 0-18.601562 14.203124-18.601562 32.800781 0 19.601562 15.601562 44.800781 46.800781 44.800781 36 0 46.402343-30.601562 47-40 .601562-8 .402343-15-4.597657-25zm-41.402343 55.601562c-35.398438-.203124-38-33.203124-35-40.800781 0 0 2.199219 17.597657 22.199219 13.199219 19.800781-4.398438 9.800781-34.199219 9.402343-35.199219.199219.199219 3.800781 3.597657 6.800781 8.199219 3.199219 4.800781 4 12.800781 3 20-1 7-.402343 16.800781 12.398438 13.199219 15.800781-4.398438 14.398438-29.199219 14.398438-29.199219 7.203124 8.199219 7.800781 50.800781-33.199219 50.601562zm0 0" fill="#f12d2d"/></svg>