<?xml version="1.0" encoding="UTF-8"?>
<svg xmlns="http://www.w3.org/2000/svg" xmlns:xlink="http://www.w3.org/1999/xlink" width="200" height="200" viewBox="0 0 200 200">
<path fill-rule="nonzero" fill="rgb(99.607843%, 83.137256%, 15.686275%)" fill-opacity="1" d="M 101.199219 146.601562 C 65.800781 146.398438 63.199219 113.398438 66.199219 105.800781 C 66.199219 105.800781 68.398438 123.398438 88.398438 119 C 108.199219 114.601562 98.199219 84.800781 97.800781 83.800781 C 98 84 101.601562 87.398438 104.601562 92 C 107.800781 96.800781 108.601562 104.800781 107.601562 112 C 106.601562 119 107.199219 128.800781 120 125.199219 C 135.800781 120.800781 134.398438 96 134.398438 96 C 141.601562 104.199219 142.199219 146.800781 101.199219 146.601562 Z M 101.199219 146.601562 "/>
<path fill-rule="nonzero" fill="rgb(77.64706%, 1.568628%, 1.568628%)" fill-opacity="1" d="M 128.199219 77.199219 C 127.398438 83 129.398438 94.199219 128.601562 101.199219 C 128 107 125 111.398438 122.398438 112.601562 C 120 113.800781 118.398438 113 118.398438 111 C 118.199219 108.800781 119.800781 105 119.601562 101.800781 C 119.398438 97.800781 117 93.199219 117 93.199219 L 118.398438 90.601562 L 119.601562 92.398438 C 120.160156 93.25 120.691406 94.117188 121.199219 95 C 121.199219 95 123.601562 80.199219 127.800781 71.800781 C 130.800781 65.800781 138.199219 63.398438 138.601562 63.199219 C 132.800781 66.601562 129.199219 70 128.199219 77.199219 Z M 128.199219 77.199219 "/>
<path fill-rule="nonzero" fill="rgb(65.490198%, 4.705882%, 4.705882%)" fill-opacity="1" d="M 124 75.199219 L 121.398438 83.601562 C 120.199219 87.199219 118.398438 90.800781 118.398438 90.800781 L 117 93.398438 C 117 93.398438 115 89.398438 112.800781 86.398438 L 108.199219 80.199219 C 108.199219 80.199219 108.601562 79 109 77 L 110.800781 78.398438 C 110.800781 78.398438 112 74.199219 112.199219 68 C 112.398438 62.800781 110.800781 56.800781 110.800781 56.800781 C 112.800781 58.398438 116 61.398438 118.199219 64.398438 C 121 67.800781 124 75.199219 124 75.199219 Z M 124 75.199219 "/>
<path fill-rule="nonzero" fill="rgb(64.313728%, 3.921569%, 3.921569%)" fill-opacity="1" d="M 88.601562 100 C 88.398438 100.398438 82.601562 109.601562 73.800781 104.398438 C 72.199219 103.398438 71 102.398438 70.199219 101 C 65 93 71.601562 79.398438 71.800781 78.601562 L 71.800781 79.199219 C 71.199219 82.601562 69.199219 96.398438 74.398438 100.199219 C 74.601562 100.398438 74.800781 100.398438 75 100.601562 C 75.398438 100.800781 75.601562 101 76 101.199219 C 80.800781 103.398438 84.601562 102.199219 86.800781 101.199219 C 87 101.199219 87 101 87.199219 101 C 88 100.398438 88.398438 100 88.601562 100 Z M 88.601562 100 "/>
<path fill-rule="nonzero" fill="rgb(94.509804%, 17.647059%, 17.647059%)" fill-opacity="1" d="M 112.398438 68 C 112.199219 74.199219 111 78.398438 111 78.398438 L 109.199219 77 C 109.800781 74.800781 110.398438 71.601562 110.601562 68.601562 C 111.199219 62 109.199219 55.601562 109.199219 55.601562 C 109.199219 55.601562 109.800781 56.199219 110.800781 57 C 111 57 112.601562 62.800781 112.398438 68 Z M 88.601562 100 C 88.398438 100 88 100.398438 87.199219 101 C 87 101 87 101.199219 86.800781 101.199219 C 84.601562 102.199219 80.800781 103.398438 76 101.199219 C 75.601562 101 75.398438 100.800781 75 100.601562 C 74.800781 100.398438 74.601562 100.398438 74.398438 100.199219 C 69.199219 96.398438 71.199219 82.398438 71.800781 79.199219 C 71.601562 81.601562 70.800781 90.199219 74.398438 95.800781 C 78.398438 102.199219 88.601562 100 88.601562 100 Z M 142.601562 91 C 137.800781 81.199219 137.800781 73.601562 137.800781 70 C 137.800781 66.199219 140.398438 63.199219 140.398438 63.199219 C 140.398438 63.199219 139.601562 63.199219 138.601562 63.398438 C 136.398438 64 132 65 130 66.800781 C 125.398438 70.800781 124.199219 75.199219 124.199219 75.199219 C 124.199219 75.199219 122.800781 80 121.601562 83.601562 C 120.398438 87.199219 118.601562 90.800781 118.601562 90.800781 L 119.800781 92.601562 C 120.359375 93.449219 120.890625 94.316406 121.398438 95.199219 C 121.398438 95.199219 123.800781 80.398438 128 72 C 131 66 138.398438 63.601562 138.800781 63.398438 C 132.800781 66.398438 129.199219 69.800781 128.398438 77.199219 C 127.601562 83 129.601562 94.199219 128.800781 101.199219 C 128.199219 107 125.199219 111.398438 122.601562 112.601562 C 120.199219 113.800781 118.601562 113 118.601562 111 C 118.398438 108.800781 120 105 119.800781 101.800781 C 119.601562 97.800781 117.199219 93.199219 117.199219 93.199219 C 117.199219 93.199219 115.199219 89.199219 113 86.199219 L 108.398438 80 C 108.398438 80 100.398438 72.199219 102 60.398438 C 103.199219 50.398438 111.601562 44.199219 112 43.800781 C 111.199219 44 100 46.398438 93.199219 56.398438 C 87.601562 64.601562 86.800781 73 89.601562 84.199219 C 92 94.199219 88.800781 99.800781 88.800781 99.800781 C 88.601562 100.199219 82.800781 109.398438 74 104.199219 C 72.398438 103.199219 71.199219 102.199219 70.398438 100.800781 C 65.199219 92.800781 71.800781 79.199219 72 78.398438 C 72 78.398438 53.398438 92.601562 53.398438 111.199219 C 53.398438 130.800781 69 156 100.199219 156 C 136.199219 156 146.601562 125.398438 147.199219 116 C 147.800781 108 147.601562 101 142.601562 91 Z M 101.199219 146.601562 C 65.800781 146.398438 63.199219 113.398438 66.199219 105.800781 C 66.199219 105.800781 68.398438 123.398438 88.398438 119 C 108.199219 114.601562 98.199219 84.800781 97.800781 83.800781 C 98 84 101.601562 87.398438 104.601562 92 C 107.800781 96.800781 108.601562 104.800781 107.601562 112 C 106.601562 119 107.199219 128.800781 120 125.199219 C 135.800781 120.800781 134.398438 96 134.398438 96 C 141.601562 104.199219 142.199219 146.800781 101.199219 146.601562 Z M 101.199219 146.601562 "/>
</svg>
