<svg fill="none" height="24" viewBox="0 0 103 24" width="103" xmlns="http://www.w3.org/2000/svg" xmlns:xlink="http://www.w3.org/1999/xlink"><linearGradient id="a"><stop offset="0" stop-color="#0f7c76"/><stop offset="1" stop-color="#2fe4ab"/></linearGradient><linearGradient id="b" gradientUnits="userSpaceOnUse" x1="12.8053" x2="7.8132" xlink:href="#a" y1="14.2584" y2="19.2499"/><linearGradient id="c" gradientUnits="userSpaceOnUse" x1="16.0635" x2="20.9892" xlink:href="#a" y1="12.8601" y2="7.93376"/><g fill="#f4f3ec"><path d="m59.762 20.7411c-1.7041 0-3.1928-.3732-4.466-1.1197-1.2659-.7373-2.3023-1.8114-2.9939-3.1028-.7218-1.3226-1.0827-2.852-1.0827-4.5882 0-1.7363.3609-3.2655 1.0827-4.58763.6912-1.2912 1.7269-2.36548 2.992-3.10348 1.2737-.74602 2.7624-1.11924 4.4661-1.11966 1.6874 0 3.1721.37322 4.4542 1.11966 1.2689.73347 2.3061 1.80886 2.9932 3.10348.7139 1.32254 1.071 2.85173 1.0715 4.58763.0004 1.7358-.3568 3.2652-1.0715 4.5882-.687 1.2945-1.7242 2.3698-2.9932 3.1028-1.2804.7465-2.7645 1.1197-4.4524 1.1197zm0-2.7992c1.6223 0 2.9165-.5354 3.8825-1.6062s1.4488-2.5392 1.4484-4.4053c0-1.8657-.4828-3.33418-1.4484-4.40541s-2.2598-1.60664-3.8825-1.60622c-1.6222 0-2.9204.53541-3.8943 1.60622-.974 1.07082-1.4607 2.53931-1.4603 4.40541 0 1.8661.4867 3.3345 1.4603 4.4053.9735 1.0708 2.2716 1.6062 3.8943 1.6062z"/><path d="m77.4242 20.741c-.9084 0-1.7035-.1703-2.3852-.511-.6664-.3276-1.2367-.8223-1.6551-1.4359l-.3406 1.6551h-2.7747v-17.5244h3.1153v7.1801c.4211-.56421.9455-1.04321 1.5455-1.41148.6413-.40578 1.4729-.60867 2.4948-.60867 1.136 0 2.1502.27595 3.0428.82785.8937.55355 1.6243 1.3345 2.1172 2.2631.5189.9573.7786 2.0444.779 3.2613s-.2593 2.3001-.779 3.2494c-.4933.9218-1.224 1.6949-2.1166 2.2393-.8934.5435-1.9078.8153-3.0434.8153zm-.6569-2.7259c.9894 0 1.8089-.3327 2.4585-.9981.6496-.6655.974-1.5255.9732-2.58 0-1.0545-.3244-1.9225-.9732-2.6038-.6487-.6813-1.4682-1.0222-2.4585-1.0226-1.0065 0-1.83.3367-2.4704 1.0101s-.9608 1.5375-.9612 2.5925c0 1.0545.3204 1.9185.9612 2.5919.6409.6734 1.4643 1.01 2.4704 1.01z"/><path d="m91.0417 20.7412c-1.1689 0-2.2194-.2678-3.1517-.8034-.9261-.5283-1.6915-1.2979-2.2148-2.2268-.5428-.9493-.8141-2.0485-.8141-3.2976s.2757-2.3485.8272-3.2982c.5304-.9278 1.2995-1.69672 2.2274-2.22681.9331-.53562 1.9836-.80343 3.1517-.80343 1.1522 0 2.1959.26781 3.131.80343.9259.52866 1.6912 1.29811 2.2149 2.22681.5428.9493.8141 2.0487.8141 3.2982s-.2713 2.3487-.8141 3.2976c-.5271.9318-1.2988 1.7018-2.2318 2.2268-.9409.5361-1.9875.8039-3.1398.8034zm0-2.7014c.8116 0 1.5176-.3044 2.1179-.913.6003-.6087.9005-1.5132.9005-2.7134 0-1.2011-.3002-2.1057-.9005-2.714-.6003-.6082-1.2982-.9126-2.0934-.913-.8275 0-1.5372.3044-2.1291.913-.592.6087-.888 1.5134-.888 2.714 0 1.2007.296 2.1051.888 2.7134.5919.6082 1.2935.9126 2.1046.913z"/><path d="m99.1285 20.4492v-17.5244h3.1155v17.5244z"/></g><path d="m29.8751 23.9998c-2.9814 0-6.0248-1.131-9.08-3.3815-2.2932-1.6858-4.1512-3.2037-5.7912-4.5432l-.1522-.1252-.8716.8203c-2.5969 2.4422-4.70598 3.9558-7.19578 3.9558-3.61446.0012-6.78432-2.9532-6.78432-6.3235 0-3.5693 3.4097-6.34344 6.34347-6.34344 3.06842 0 5.42043 1.42149 8.34613 3.71214 4.1004-3.84552 8.1757-7.57145 11.2623-9.62291 3.962-2.633195 10.0531-3.28445 14.027.56359 4.5087 4.36529 2.8474 12.76902-.2273 16.41162-1.1478 1.3595-3.6213 3.7641-7.2947 4.5863-.8473.1916-1.7132.2888-2.5818.29zm-12.7051-10.2272c1.5686 1.2812 3.3433 2.7246 5.4937 4.3064 2.7597 2.0295 5.1894 2.7597 7.2552 2.7597 3.7034 0 6.2377-2.3452 7.4224-3.7485 3.3227-3.9357 2.5593-10.05937.4434-12.10895-3.1035-3.00579-7.7318-1.76903-10.0857-.20477-2.8079 1.8661-6.6359 5.34902-10.529 8.99612zm-10.82653-2.5575c-1.4052 0-3.18801 1.5029-3.18801 3.1881 0 1.6281 1.76339 3.1704 3.62761 3.1704 1.25242 0 2.66263-.8691 5.03343-3.0991l.5467-.5141c-2.2738-1.7458-4.01962-2.7453-6.01973-2.7453z" fill="#2fe4ab"/><path d="m11.8165 14.4745c-2.37078 2.2299-3.78225 3.0991-5.03341 3.0991-.30788-.001-.61434-.0418-.91175-.1215v3.2124c.30213.0417.60676.0627.91175.0627 2.4898 0 4.59891-1.5136 7.19571-3.9558l.8717-.8203-2.4873-1.9926z" fill="url(#b)" opacity=".92"/><path d="m14.6896 11.7724 2.4804 2.0007c1.7646-1.6538 3.5161-3.2725 5.1655-4.72344l-2.2343-2.23618c-1.7421 1.53545-3.5737 3.23432-5.4116 4.95892z" fill="url(#c)" opacity=".8464"/></svg>