<svg fill="none" height="73" viewBox="0 0 207 73" width="207" xmlns="http://www.w3.org/2000/svg"><path d="m60.1667 37.0187v10.8525c-.0039.6768-.1834 1.341-.5209 1.9276s-.8214 1.0756-1.4045 1.4192l-9.401 5.415c-.5823.3471-1.2475.5303-1.9254.5303-.6778 0-1.3431-.1832-1.9253-.5303l-9.4011-5.415c-.5831-.3436-1.067-.8326-1.4045-1.4192-.3374-.5866-.5169-1.2508-.5208-1.9276v-3.0459l4.8133-2.794v5.2947l8.4234 4.8885 8.4233-4.8885v-9.7546l-8.4233-4.8885-19.7347 11.4317c-.5877.3311-1.2508.5051-1.9254.5051-.6745 0-1.3376-.174-1.9253-.5051l-9.4011-5.4376c-.5741-.3488-1.0487-.8396-1.3781-1.4252-.3293-.5855-.5022-1.246-.5021-1.9178v-10.8526c.0039-.6768.1834-1.3409.5209-1.9276.3374-.5866.8214-1.0756 1.4044-1.4192l9.4011-5.415c.5835-.3436 1.2482-.5248 1.9253-.5248.6772 0 1.3419.1812 1.9254.5248l9.4011 5.415c.583.3436 1.067.8326 1.4044 1.4192.3375.5867.517 1.2508.5209 1.9276v3.0459l-4.8434 2.7752v-5.2646l-8.4234-4.8885-8.4234 4.8885v9.7433l8.4234 4.8886 19.7347-11.4317c.5877-.3312 1.2508-.5051 1.9254-.5051.6745 0 1.3376.1739 1.9253.5051l9.4011 5.4375c.5797.3452 1.0603.8344 1.395 1.4202.3348.5858.5123 1.2482.5153 1.9229z" fill="#7b3fe4"/><g fill="#fff"><path d="m76.9186 51.8159v-8.4572c.9175 1.1544 2.5834 1.8012 4.5125 1.8012 4.9261 0 8.2541-3.4972 8.2541-8.8294 0-5.3323-3.0572-8.8295-7.8442-8.8295-2.2074 0-3.9071.816-4.9262 2.1397v-1.8803h-4.7156v24.0442zm3.9296-10.7323c-2.5496 0-4.2117-1.9027-4.2117-4.7531s1.6621-4.7871 4.2117-4.7871c2.4781 0 4.1778 1.8803 4.1778 4.7871s-1.6884 4.7531-4.1778 4.7531z"/><path d="m100.404 45.1599c5.265 0 9.025-3.7378 9.025-8.8294 0-5.0917-3.76-8.8295-9.025-8.8295-5.2647 0-9.0251 3.7341-9.0251 8.8295 0 5.0953 3.7604 8.8294 9.0251 8.8294zm0-4.0763c-2.5459 0-4.2794-1.9366-4.2794-4.7531 0-2.8166 1.7373-4.7871 4.2794-4.7871 2.542 0 4.279 1.9329 4.279 4.7871 0 2.8541-1.73 4.7531-4.279 4.7531z"/><path d="m117.013 44.8893v-24.5556h-4.719v24.5556z"/><path d="m131.201 27.7717-3.565 11.0369-3.599-11.0369h-4.832l6.212 16.9784-2.512 7.0658h4.513l2.425-6.9906 6.216-17.0461z"/><path d="m149.316 29.4714c-.952-1.1883-2.632-1.9704-4.72-1.9704-4.993 0-8.013 3.4972-8.013 8.8295 0 5.3322 3.008 8.8294 8.081 8.8294 2.004 0 3.802-.752 4.686-2.0043v2.2563c0 1.5944-1.053 2.715-2.478 2.715h-7.879v3.704h8.627c3.869 0 6.449-2.3427 6.449-5.9114v-18.1478h-4.753zm-3.904 11.6122c-2.515 0-4.177-1.8802-4.177-4.7531 0-2.873 1.662-4.7871 4.177-4.7871 2.516 0 4.208 1.8803 4.208 4.7871s-1.662 4.7531-4.208 4.7531z"/><path d="m165.97 45.1599c5.265 0 9.025-3.7378 9.025-8.8294 0-5.0917-3.76-8.8295-9.025-8.8295-5.264 0-9.025 3.7341-9.025 8.8295 0 5.0953 3.761 8.8294 9.025 8.8294zm0-4.0763c-2.549 0-4.279-1.9366-4.279-4.7531 0-2.8166 1.73-4.7871 4.279-4.7871 2.55 0 4.28 1.9329 4.28 4.7871 0 2.8541-1.734 4.7531-4.28 4.7531z"/><path d="m182.339 44.8892v-9.3748c0-2.2073 1.459-3.8017 3.531-3.8017 1.971 0 3.294 1.5041 3.294 3.5648v9.6117h4.753v-10.6646c0-3.9409-2.511-6.7236-6.392-6.7236-2.343 0-4.242.9852-5.193 2.6323v-2.3616h-4.746v17.1175z"/></g></svg>