<svg height="238" viewBox="0 0 1459 238" width="1459" xmlns="http://www.w3.org/2000/svg"><g fill="none" fill-rule="evenodd"><path d="m526.766839 130.223822-20.0235 72.05537h-20.827364l-27.915975-105.4522303h22.873561l16.588812 76.3670003h.584628l19.731187-76.3670003h18.635009l19.731187 76.3670003h.584627l16.661891-76.3670003h22.873561l-27.989053 105.4522303h-20.827364l-20.023501-72.05537zm99.898267 57.878147c9.280966 0 16.954205-6.065513 16.954205-14.542615v-5.700121l-16.515734 1.023099c-7.965553.584628-12.496418 4.165473-12.496418 9.719436 0 5.846278 4.823179 9.500201 12.057947 9.500201zm-7.015533 15.419557c-14.908007 0-26.23517-9.646358-26.23517-23.750502 0-14.250302 10.96177-22.508169 30.473721-23.677424l19.731187-1.169256v-5.188571c0-7.307847-5.115493-11.546398-13.154124-11.546398-7.965554 0-13.007968 3.946237-14.031066 9.719436h-19.511952c.803864-15.200321 13.738753-25.650542 34.493038-25.650542 20.096579 0 33.177625 10.377142 33.177625 26.162092v53.858831h-20.608129v-11.984869h-.43847c-4.384709 8.330946-14.104145 13.227203-23.89666 13.227203zm59.19356-1.242334v-105.4522303h21.338913v105.4522303zm36.246921 0v-105.4522303h21.338912v105.4522303zm70.886114-64.235974c-9.354044 0-16.077263 7.088612-16.808047 16.881126h33.250703c-.438471-10.01175-6.942455-16.881126-16.442656-16.881126zm16.73497 40.266237h19.585029c-2.338511 15.346478-16.369577 25.650542-35.735371 25.650542-24.115895 0-38.585431-15.419557-38.585431-40.485472 0-24.992836 14.615693-41.216256 37.781568-41.216256 22.800482 0 37.196941 15.419557 37.196941 39.243138v6.503983h-54.004989v1.315413c0 11.181006 7.088612 18.854245 17.977303 18.854245 7.819397 0 13.811831-3.873159 15.78495-9.865593zm36.904627-72.420763h21.338912v18.050382h14.469537v16.077263h-14.469537v37.489254c0 5.992435 2.923139 8.842495 9.207888 8.842495 1.90004 0 3.873158-.146157 5.188571-.365392v15.711871c-2.192354.511549-5.846278.876941-10.157907.876941-18.415774 0-25.577464-6.138591-25.577464-21.411991v-41.143178h-11.034849v-16.077263h11.034849zm95.952029 98.217462c-30.692957 0-49.912594-20.53505-49.912594-54.589616 0-33.981488 19.365794-54.516538 49.912594-54.516538 25.358229 0 44.650945 16.077263 46.331749 39.681609h-21.485069c-2.046197-12.934889-11.984869-21.411992-24.84668-21.411992-16.661891 0-27.404426 13.957988-27.404426 36.173842 0 22.508169 10.596378 36.393078 27.477505 36.393078 13.081046 0 22.508168-7.673239 24.846679-20.169658h21.48507c-2.484668 23.531267-20.53505 38.439275-46.404828 38.439275zm94.125066-.146157c-23.67742 0-38.804665-15.200321-38.804665-40.923942 0-25.358229 15.346475-40.777786 38.804665-40.777786s38.80467 15.346478 38.80467 40.777786c0 25.796699-15.12724 40.923942-38.80467 40.923942zm0-16.296498c10.45022 0 17.10036-8.842495 17.10036-24.554366 0-15.565714-6.72322-24.554366-17.10036-24.554366s-17.17344 8.988652-17.17344 24.554366c0 15.711871 6.65014 24.554366 17.17344 24.554366zm49.76644 14.615693v-78.340118h20.60813v13.957987h.43847c4.16547-9.719436 12.42334-15.419557 24.48129-15.419557 17.39267 0 27.18519 10.961771 27.18519 29.304466v50.497222h-21.33892v-46.039435c0-10.230986-4.82318-16.077263-14.39646-16.077263-9.57327 0-15.63879 7.015533-15.63879 17.17344v44.943258zm86.23259 0v-78.340118h20.60813v13.957987h.43847c4.16547-9.719436 12.42334-15.419557 24.48129-15.419557 17.39267 0 27.18519 10.961771 27.18519 29.304466v50.497222h-21.33891v-46.039435c0-10.230986-4.82318-16.077263-14.39646-16.077263s-15.63879 7.015533-15.63879 17.17344v44.943258zm121.38334-64.235974c-9.35404 0-16.07726 7.088612-16.80805 16.881126h33.25071c-.43848-10.01175-6.94246-16.881126-16.44266-16.881126zm16.73497 40.266237h19.58503c-2.33851 15.346478-16.36958 25.650542-35.73537 25.650542-24.1159 0-38.58543-15.419557-38.58543-40.485472 0-24.992836 14.61569-41.216256 37.78156-41.216256 22.80049 0 37.19694 15.419557 37.19694 39.243138v6.503983h-54.00498v1.315413c0 11.181006 7.08861 18.854245 17.9773 18.854245 7.8194 0 13.81183-3.873159 15.78495-9.865593zm102.38293-25.212072h-19.80426c-1.24234-8.257867-6.72322-14.104145-15.49264-14.104145-10.5233 0-17.10036 8.915573-17.10036 24.042817 0 15.419556 6.57706 24.188973 17.17344 24.188973 8.55018 0 14.10415-5.115493 15.41956-13.665674h19.87734c-1.09617 18.488853-14.90801 30.400643-35.51613 30.400643-23.60435 0-38.58544-15.346478-38.58544-40.923942 0-25.138994 14.98109-40.777786 38.43928-40.777786 21.19276 0 34.63919 13.081046 35.58921 30.839114zm16.07727-47.208691h21.33891v18.050382h14.46954v16.077263h-14.46954v37.489254c0 5.992435 2.92314 8.842495 9.20789 8.842495 1.90004 0 3.87316-.146157 5.18857-.365392v15.711871c-2.19236.511549-5.84628.876941-10.15791.876941-18.41577 0-25.57746-6.138591-25.57746-21.411991v-41.143178h-11.03485v-16.077263h11.03485z" fill="#3999fb"/><path d="m79.4992542 46.5389641c63.2162498-61.8939784 165.7100398-61.8939784 228.9262868 0l7.608178 7.4490392c3.160812 3.0946988 3.160812 8.1121973 0 11.2068973l-26.026058 25.4816798c-1.580406 1.5473507-4.142751 1.5473507-5.723157 0l-10.469756-10.2507642c-44.101235-43.1787861-115.603465-43.1787861-159.704701 0l-11.212242 10.9777227c-1.580408 1.5473494-4.142753 1.5473494-5.7231579 0l-26.0260573-25.4816798c-3.1608124-3.0947-3.1608124-8.1121985 0-11.2068972zm282.7506308 52.6988081 23.163241 22.6788228c3.160796 3.094685 3.160815 8.112153.000041 11.206858l-104.444655 102.261626c-3.16079 3.094722-8.285479 3.094757-11.446314.00008-.000013-.000013-.000028-.000027-.000041-.000041l-74.128461-72.578053c-.790203-.773675-2.071376-.773675-2.861579 0-.000005.000005-.000009.000011-.000014.000014l-74.126883 72.578c-3.16078 3.09473-8.285471 3.094782-11.446315.000113-.000018-.000018-.000038-.000037-.000058-.000056l-104.44756025-102.262986c-3.16081116-3.094699-3.16081116-8.112197 0-11.206896l23.16328295-22.6787848c3.1608111-3.0946987 8.2855015-3.0946987 11.446314 0l74.1295403 72.5790678c.790203.773675 2.071374.773675 2.861578 0 .000012-.000012.000022-.000023.000034-.000032l74.125825-72.5790358c3.16074-3.0947699 8.28543-3.094886 11.446315-.0002585.000044.0000435.000087.000087.000131.0001306l74.129442 72.5791637c.790203.773674 2.071376.773674 2.861578 0l74.128244-72.5777328c3.160813-3.0947 8.285502-3.0947 11.446314 0z" fill="#3b99fc" fill-rule="nonzero"/></g></svg>