<svg width="480" height="332" viewBox="0 0 480 332" fill="none" xmlns="http://www.w3.org/2000/svg">
<path d="M126.613 93.9842C189.235 32.6719 290.765 32.6719 353.388 93.9842L360.924 101.363C364.055 104.429 364.055 109.399 360.924 112.465L335.143 137.707C333.577 139.24 331.039 139.24 329.473 137.707L319.102 127.553C275.415 84.7796 204.585 84.7796 160.898 127.553L149.791 138.427C148.226 139.96 145.688 139.96 144.122 138.427L118.341 113.185C115.209 110.119 115.209 105.149 118.341 102.083L126.613 93.9842ZM406.706 146.188L429.652 168.653C432.783 171.719 432.783 176.689 429.652 179.755L326.189 281.056C323.058 284.121 317.981 284.121 314.85 281.056V281.056L241.418 209.16C240.635 208.393 239.366 208.393 238.583 209.16V209.16L165.153 281.056C162.022 284.121 156.945 284.121 153.814 281.056V281.056L50.3483 179.754C47.2172 176.688 47.2172 171.718 50.3483 168.652L73.2939 146.186C76.425 143.121 81.5016 143.121 84.6327 146.186L158.066 218.083C158.848 218.85 160.117 218.85 160.9 218.083V218.083L234.329 146.186C237.46 143.121 242.537 143.121 245.668 146.186V146.186L319.101 218.083C319.884 218.85 321.153 218.85 321.936 218.083L395.367 146.188C398.499 143.122 403.575 143.122 406.706 146.188Z" fill="white"/>
</svg>
