<svg fill="none" height="27" viewBox="0 0 120 27" width="120" xmlns="http://www.w3.org/2000/svg"><path clip-rule="evenodd" d="m41.6539 13.4915-11.8161-11.77476v8.62326l-11.7323 8.6339 11.7323.0081v6.2842z" fill="#4e529a" fill-rule="evenodd"/><path clip-rule="evenodd" d="m-.00158644 13.4872 11.81608644 11.7747v-8.5539l11.7324-8.7033-11.7324-.00806v-6.28418z" fill="#8c8dfc" fill-rule="evenodd"/><g fill="#fff" fill-opacity=".9"><path d="m59.2586 19.3717h-9.0438v-2.5971l5.1774-5.7712h-5.044v-2.55271h8.8215v2.46391l-5.3329 5.8822h5.4218z"/><path d="m71.6009 8.45069-4.3774 4.59481 4.4663 6.3262h-3.622l-2.8886-4.1731-1.2222 1.2874v2.8857h-2.9553v-16.07074h2.9553v9.21184l3.7775-4.06211z"/><path d="m84.4547 7.38523-2.7553.84349c-.1037-.56233-.3852-1.07286-.8444-1.5316s-1.1333-.68811-2.0221-.68811c-.7258 0-1.3184.19977-1.7776.59932-.4592.38475-.6889.85089-.6889 1.39842 0 .96187.5704 1.55379 1.711 1.77576l2.1999.42179c1.3924.2663 2.4739.8212 3.2442 1.6647s1.1554 1.835 1.1554 2.9744c0 1.3023-.5185 2.4417-1.5554 3.4184-1.0222.9619-2.3998 1.4428-4.133 1.4428-.9925 0-1.8888-.148-2.6887-.4439-.8-.296-1.4444-.6881-1.9332-1.1765-.4889-.5031-.874-1.0284-1.1555-1.576-.2666-.5623-.4296-1.1394-.4888-1.7313l2.8442-.7547c.0741.8434.4 1.5464.9777 2.1087.5926.5623 1.4147.8435 2.4665.8435.7999 0 1.4221-.1776 1.8665-.5328.4592-.3551.6889-.8213.6889-1.3984 0-.4587-.1704-.8509-.5111-1.1764-.3259-.3404-.7926-.5697-1.3999-.6881l-2.1998-.444c-1.274-.2663-2.2814-.7917-3.022-1.576-.7407-.7843-1.1111-1.76094-1.1111-2.92998 0-1.39102.5333-2.56007 1.5999-3.50714 1.0814-.94708 2.3776-1.42062 3.8886-1.42062.9036 0 1.711.12579 2.422.37736.7111.25156 1.2814.59192 1.711 1.02106.4296.41435.7629.84349 1 1.28743.237.44394.4073.91008.511 1.39842z"/><path d="m89.6555 23.6779h-3.1331l2.5776-5.6825-4.6441-9.54471h3.3109l2.9109 6.39271 2.6887-6.39271h3.1553z"/><path d="m100.601 13.0899v6.2818h-2.9556v-10.92101h2.8666v1.35402c.311-.53273.755-.93968 1.333-1.22084s1.185-.42174 1.822-.42174c1.289 0 2.267.40694 2.933 1.22084.682.79913 1.022 1.83493 1.022 3.10763v6.8811h-2.955v-6.3706c0-.6511-.17-1.1765-.511-1.576-.326-.3996-.83-.5993-1.511-.5993-.622 0-1.118.2145-1.489.6437-.37.4291-.555.9693-.555 1.6204z"/><path d="m114.866 10.848c-.785 0-1.444.2737-1.978.8213-.533.5475-.8 1.2948-.8 2.2419 0 .947.267 1.7017.8 2.2641.548.5475 1.215.8213 2 .8213.696 0 1.252-.1776 1.667-.5328.415-.3699.696-.8065.844-1.3096l2.6.8657c-.267 1.0063-.844 1.8719-1.733 2.5971-.889.7251-2.015 1.0876-3.378 1.0876-1.629 0-3-.5475-4.111-1.6426-1.096-1.1098-1.644-2.4934-1.644-4.1508 0-1.6722.541-3.0558 1.622-4.15088 1.096-1.09506 2.444-1.64259 4.044-1.64259 1.393 0 2.533.36255 3.422 1.08766.889.71031 1.459 1.57601 1.711 2.59701l-2.644.8879c-.356-1.2282-1.163-1.8423-2.422-1.8423z"/></g></svg>